<?xml version="1.0" encoding="UTF-8"?>
<svg version="1.1" xmlns="http://www.w3.org/2000/svg" width="136" height="135">
<path d="M0 0 C8.51341838 6.7620866 12.67949408 15.92043843 17.05078125 25.62890625 C17.51097656 26.64984375 17.97117187 27.67078125 18.4453125 28.72265625 C21.44444234 36.09860809 22.42198693 43.17248779 20.05078125 50.87890625 C15.29256528 57.4214532 9.35814163 61.3666918 2.05078125 64.62890625 C2.96601562 64.89445312 3.88125 65.16 4.82421875 65.43359375 C6.01273437 65.78679687 7.20125 66.14 8.42578125 66.50390625 C9.60914062 66.85195312 10.7925 67.2 12.01171875 67.55859375 C15.05078125 68.62890625 15.05078125 68.62890625 17.05078125 70.62890625 C17.32421875 72.6171875 17.32421875 72.6171875 17.42578125 74.94140625 C17.80465359 79.31247051 19.00381565 81.3915053 22.05078125 84.62890625 C23.40887836 88.70319757 23.94327069 92.45953834 22.26171875 96.546875 C21.56844263 97.87256712 20.85955014 99.19018851 20.13671875 100.5 C18.60446001 103.50388853 17.65164692 106.62720409 16.6640625 109.84375 C16.05078125 111.62890625 16.05078125 111.62890625 15.05078125 112.62890625 C12.21735251 112.95629823 9.39023306 113.24107725 6.55078125 113.50390625 C0.82952929 114.08050117 -4.4255645 114.74504256 -9.81103516 116.86010742 C-18.33266655 119.92411944 -27.11712767 119.98111433 -36.07421875 119.94140625 C-37.99657349 119.93512207 -37.99657349 119.93512207 -39.95776367 119.92871094 C-52.02556292 119.78501936 -64.51171229 119.3825869 -74.94921875 112.62890625 C-79.62095678 107.65576576 -79.50013576 101.72473355 -79.37890625 95.21875 C-79.00253698 88.98667928 -77.08065972 83.12605377 -75.17163086 77.21533203 C-73.29526758 71.3397827 -72.32319208 65.78754834 -71.94921875 59.62890625 C-72.56796875 59.48864014 -73.18671875 59.34837402 -73.82421875 59.20385742 C-78.98385645 57.80783872 -83.09131203 53.71257789 -86.32421875 49.62890625 C-89.83449338 43.14839923 -90.20667436 37.86626964 -89.94921875 30.62890625 C-90.69171875 30.40203125 -91.43421875 30.17515625 -92.19921875 29.94140625 C-95.67980106 28.28021924 -97.02144128 26.98466703 -98.94921875 23.62890625 C-99.49647657 20.53330643 -99.69471585 17.69311858 -98.94921875 14.62890625 C-95.89103794 10.43806588 -92.71008949 9.86757156 -87.76171875 8.87890625 C-81.47387327 7.43839613 -77.83045084 5.26929089 -73.30078125 0.72265625 C-53.22976345 -17.14788452 -20.80467071 -14.74434034 0 0 Z " fill="#675040" transform="translate(102.94921875,13.37109375)"/>
<path d="M0 0 C8.51341838 6.7620866 12.67949408 15.92043843 17.05078125 25.62890625 C17.51097656 26.64984375 17.97117187 27.67078125 18.4453125 28.72265625 C21.44444234 36.09860809 22.42198693 43.17248779 20.05078125 50.87890625 C15.29256528 57.4214532 9.35814163 61.3666918 2.05078125 64.62890625 C2.96601562 64.89445312 3.88125 65.16 4.82421875 65.43359375 C6.01273437 65.78679687 7.20125 66.14 8.42578125 66.50390625 C9.60914062 66.85195312 10.7925 67.2 12.01171875 67.55859375 C15.05078125 68.62890625 15.05078125 68.62890625 17.05078125 70.62890625 C17.32421875 72.6171875 17.32421875 72.6171875 17.42578125 74.94140625 C17.80465359 79.31247051 19.00381565 81.3915053 22.05078125 84.62890625 C23.40887836 88.70319757 23.94327069 92.45953834 22.26171875 96.546875 C21.56844263 97.87256712 20.85955014 99.19018851 20.13671875 100.5 C18.60446001 103.50388853 17.65164692 106.62720409 16.6640625 109.84375 C16.05078125 111.62890625 16.05078125 111.62890625 15.05078125 112.62890625 C12.21734944 112.95629858 9.39025586 113.24127802 6.55078125 113.50390625 C0.71069453 114.08888703 -4.61398466 114.81294508 -10.11328125 116.96484375 C-13.01396734 118.01402808 -15.89131059 118.30359687 -18.94921875 118.62890625 C-17.95921875 116.64890625 -16.96921875 114.66890625 -15.94921875 112.62890625 C-16.72265625 112.51933594 -17.49609375 112.40976563 -18.29296875 112.296875 C-24.55573104 111.34350896 -30.11343318 110.09789245 -35.94921875 107.62890625 C-35.94921875 105.97890625 -35.94921875 104.32890625 -35.94921875 102.62890625 C-36.93921875 102.58765625 -37.92921875 102.54640625 -38.94921875 102.50390625 C-43.91645722 101.84363938 -47.2321838 98.7859723 -50.94921875 95.62890625 C-47.94921875 95.62890625 -47.94921875 95.62890625 -45.19921875 97.06640625 C-41.71072612 98.74356617 -38.75691768 99.11633139 -34.94921875 99.62890625 C-34.28921875 100.28890625 -33.62921875 100.94890625 -32.94921875 101.62890625 C-30.84503907 101.98530186 -30.84503907 101.98530186 -28.51171875 101.94140625 C-27.72925781 101.95816406 -26.94679688 101.97492188 -26.140625 101.9921875 C-23.42996467 101.5428267 -22.6020124 100.78714138 -20.94921875 98.62890625 C-19.70963783 94.91016348 -19.28791215 91.48782479 -19.94921875 87.62890625 C-22.78250951 84.06444368 -25.41158545 83.39351192 -29.76171875 82.87890625 C-31.15644915 82.7787951 -32.55222561 82.68977741 -33.94921875 82.62890625 C-33.97608428 80.64981227 -33.9955525 78.67061654 -34.01171875 76.69140625 C-34.02332031 75.58925781 -34.03492187 74.48710938 -34.046875 73.3515625 C-33.94921875 70.62890625 -33.94921875 70.62890625 -32.94921875 69.62890625 C-30.9777137 69.34164967 -28.99756675 69.11327049 -27.015625 68.91015625 C-25.80970703 68.78253906 -24.60378906 68.65492187 -23.36132812 68.5234375 C-22.09095703 68.39324219 -20.82058594 68.26304688 -19.51171875 68.12890625 C-17.01265693 67.87200524 -14.51393594 67.6117596 -12.015625 67.34765625 C-10.90131104 67.23357422 -9.78699707 67.11949219 -8.63891602 67.00195312 C-5.98486879 66.78010509 -5.98486879 66.78010509 -3.94921875 65.62890625 C-3.94921875 64.63890625 -3.94921875 63.64890625 -3.94921875 62.62890625 C-3.17578125 62.40976563 -2.40234375 62.190625 -1.60546875 61.96484375 C5.01631261 59.94880636 11.26034575 57.84925263 16.05078125 52.62890625 C19.01254472 46.71512196 18.94528124 40.39373218 17.43359375 34.03125 C16.4503068 31.14665156 15.30055693 28.40930607 14.05078125 25.62890625 C13.77169922 24.99726562 13.49261719 24.365625 13.20507812 23.71484375 C6.24974052 8.17977971 -1.98910104 -0.08170047 -17.94921875 -6.37109375 C-23.91015543 -8.40804216 -29.62590041 -8.67831372 -35.88671875 -8.62109375 C-36.72912109 -8.62882813 -37.57152344 -8.6365625 -38.43945312 -8.64453125 C-47.47218931 -8.61671682 -55.04247915 -6.7892064 -63.07421875 -2.68359375 C-64.11896362 -2.15838135 -64.11896362 -2.15838135 -65.18481445 -1.62255859 C-69.67814143 0.72597339 -73.27207468 3.19325222 -76.4921875 7.18359375 C-80.42681888 11.08657931 -86.20401165 11.1987015 -91.42578125 11.87109375 C-94.54370753 12.80743694 -95.4174943 13.79237949 -96.94921875 16.62890625 C-96.87831813 20.59934074 -96.59728305 22.82962694 -94.07421875 25.94140625 C-91.85492753 27.75174436 -91.85492753 27.75174436 -88.94921875 29.62890625 C-88.39453125 32.38671875 -88.39453125 32.38671875 -88.07421875 35.75390625 C-86.87327606 44.60963815 -83.58076564 49.8717197 -76.6640625 55.44140625 C-74.53942762 56.91267961 -72.41997826 57.88019125 -69.94921875 58.62890625 C-69.77001172 64.19050372 -70.27998447 68.99751977 -71.76171875 74.37890625 C-71.94114014 75.07137451 -72.12056152 75.76384277 -72.30541992 76.47729492 C-73.12965536 79.64875387 -73.99911253 82.79971197 -74.91796875 85.9453125 C-76.87220218 92.88465066 -77.10571144 98.51819376 -75.94921875 105.62890625 C-75.76359375 106.84578125 -75.57796875 108.06265625 -75.38671875 109.31640625 C-75.17015625 110.46109375 -75.17015625 110.46109375 -74.94921875 111.62890625 C-77.9355719 108.90223598 -78.81386631 106.87277808 -79.2578125 102.79296875 C-79.59147501 93.63241624 -77.98859293 85.9371902 -75.17163086 77.21533203 C-73.29526758 71.3397827 -72.32319208 65.78754834 -71.94921875 59.62890625 C-72.56796875 59.48864014 -73.18671875 59.34837402 -73.82421875 59.20385742 C-78.98385645 57.80783872 -83.09131203 53.71257789 -86.32421875 49.62890625 C-89.83449338 43.14839923 -90.20667436 37.86626964 -89.94921875 30.62890625 C-90.69171875 30.40203125 -91.43421875 30.17515625 -92.19921875 29.94140625 C-95.67980106 28.28021924 -97.02144128 26.98466703 -98.94921875 23.62890625 C-99.49647657 20.53330643 -99.69471585 17.69311858 -98.94921875 14.62890625 C-95.89103794 10.43806588 -92.71008949 9.86757156 -87.76171875 8.87890625 C-81.47387327 7.43839613 -77.83045084 5.26929089 -73.30078125 0.72265625 C-53.22976345 -17.14788452 -20.80467071 -14.74434034 0 0 Z " fill="#212225" transform="translate(102.94921875,13.37109375)"/>
<path d="M0 0 C10.55834581 4.82574701 14.95693376 12.77517054 19.328125 23.08984375 C21.82094989 26.9824096 23.94726247 27.79330488 28.296875 29.1640625 C33.34557509 29.68634182 36.30754398 29.34779356 40.296875 26.1640625 C41.21858903 23.65511568 41.8384917 21.49960642 42.359375 18.9140625 C43.8947213 12.34967371 45.41661208 7.24296424 50.109375 2.2265625 C53.39458619 0.63088849 55.68208286 0.73518886 59.296875 1.1640625 C67.12132776 4.18402672 69.97648766 10.26986668 73.44140625 17.578125 C75.48180582 23.74590818 75.35407722 30.84634994 72.671875 36.7265625 C67.54162437 41.99181973 62.23224444 44.07194212 55.296875 45.8515625 C54.12511719 46.16963867 54.12511719 46.16963867 52.9296875 46.49414062 C44.39090662 48.77258637 36.4315563 49.3465754 27.609375 49.3515625 C26.48853516 49.36380859 25.36769531 49.37605469 24.21289062 49.38867188 C17.18243018 49.40091296 10.07140685 49.24784643 3.296875 47.1640625 C2.966875 46.5040625 2.636875 45.8440625 2.296875 45.1640625 C3.32683594 45.23625 4.35679688 45.3084375 5.41796875 45.3828125 C38.62677343 48.301548 38.62677343 48.301548 68.296875 36.1640625 C72.00107853 32.08943862 71.58496615 27.82234241 71.5 22.58984375 C71.44721714 20.1555639 71.44721714 20.1555639 70.296875 18.1640625 C68.316875 18.1640625 66.336875 18.1640625 64.296875 18.1640625 C64.214375 16.9265625 64.131875 15.6890625 64.046875 14.4140625 C63.66244368 11.4026838 63.33825902 10.22318253 61.546875 7.6640625 C58.89286579 5.89472302 57.42494384 5.8164993 54.296875 6.1640625 C51.76406623 11.38798058 51.64110145 15.77517316 53.171875 21.3515625 C57.2049222 26.68941909 63.93396502 28.01235299 70.296875 29.1640625 C64.80718577 34.65375173 53.28477309 36.27576955 45.734375 36.2890625 C44.6 36.2478125 43.465625 36.2065625 42.296875 36.1640625 C43.946875 33.8540625 45.596875 31.5440625 47.296875 29.1640625 C46.2140625 30.0921875 46.2140625 30.0921875 45.109375 31.0390625 C38.16839061 36.28336182 30.62041541 35.757317 22.296875 35.1640625 C18.37241673 34.24288741 14.62450545 32.58704846 12.296875 29.1640625 C12.296875 27.8440625 12.296875 26.5240625 12.296875 25.1640625 C11.306875 25.1640625 10.316875 25.1640625 9.296875 25.1640625 C12.08817097 30.05773884 14.55580002 33.91303966 19.296875 37.1640625 C11.24513571 37.775587 3.76582797 36.73227296 -4.140625 35.2890625 C-5.09984863 35.11536133 -6.05907227 34.94166016 -7.04736328 34.76269531 C-11.50326478 33.91492225 -15.51368342 32.94495959 -19.703125 31.1640625 C-19.373125 30.5040625 -19.043125 29.8440625 -18.703125 29.1640625 C-15.12118244 28.65504961 -11.56580233 28.32357516 -7.9609375 28.04101562 C-7.208125 27.96947266 -6.4553125 27.89792969 -5.6796875 27.82421875 C-4.98955566 27.76886963 -4.29942383 27.71352051 -3.58837891 27.65649414 C-1.2027158 27.03335474 -0.24503059 26.05757966 1.296875 24.1640625 C2.75026853 19.59501099 2.68190544 16.06246686 0.796875 11.6640625 C-1.58068609 8.91781455 -1.58068609 8.91781455 -5.203125 7.9765625 C-8.79816487 7.8029547 -8.79816487 7.8029547 -11.078125 10.2890625 C-13.01334894 13.36417704 -13.01334894 13.36417704 -13.703125 18.1640625 C-17.333125 17.8340625 -20.963125 17.5040625 -24.703125 17.1640625 C-23.56356738 26.468353 -23.56356738 26.468353 -18.703125 34.1640625 C-12.42417283 38.45190152 -5.92367666 41.80349753 1.296875 44.1640625 C1.296875 44.4940625 1.296875 44.8240625 1.296875 45.1640625 C-7.33374161 44.99483472 -15.72600697 41.14846463 -21.8359375 35.02734375 C-27.07827901 28.17684433 -27.58794547 21.66034993 -26.703125 13.1640625 C-22.43324772 1.58754177 -11.69724026 -3.61735465 0 0 Z " fill="#F7F7F8" transform="translate(44.703125,27.8359375)"/>
<path d="M0 0 C2.16942874 1.87019719 2.92798365 3.18120537 3.1796875 6.04296875 C3.1867196 8.02953653 3.09920508 10.01589835 3 12 C5.97 11.505 5.97 11.505 9 11 C12.01176591 15.51764886 11.78111127 19.71303391 11 25 C8.69604849 30.80869131 4.77573751 33.41988671 -0.8125 35.875 C-5.80817944 37.71291663 -10.74358507 39.16441463 -16 40 C-16.64582031 40.11085937 -17.29164062 40.22171875 -17.95703125 40.3359375 C-28.92086565 41.88722573 -40.35295983 41.17773888 -51.375 40.5625 C-52.45394531 40.50376709 -52.45394531 40.50376709 -53.5546875 40.44384766 C-59.64334073 40.06184321 -63.99082464 38.06340272 -69.3125 35.25 C-69.96412109 34.91484375 -70.61574219 34.5796875 -71.28710938 34.234375 C-76.86311057 31.28729929 -81.6957619 28.30415398 -84.875 22.6875 C-86.16350776 18.4640579 -86.23066411 15.38261814 -86 11 C-84.54176788 10.9729957 -83.08339325 10.95360213 -81.625 10.9375 C-80.81289062 10.92589844 -80.00078125 10.91429687 -79.1640625 10.90234375 C-77 11 -77 11 -75 12 C-74.9175 10.9275 -74.835 9.855 -74.75 8.75 C-74 5 -74 5 -72.375 2.5 C-70 1 -70 1 -66.5 0.9375 C-62.4082277 2.17964516 -61.25519826 3.44372582 -59 7 C-57.78865485 9.4226903 -57.95159726 10.69550099 -58.1875 13.375 C-58.24292969 14.14585938 -58.29835938 14.91671875 -58.35546875 15.7109375 C-59.2595471 18.92178546 -60.27644273 20.04790418 -63 22 C-65.89328741 22.75246804 -68.77524511 23.01320359 -71.75 23.25 C-72.54277344 23.32734375 -73.33554688 23.4046875 -74.15234375 23.484375 C-76.10009891 23.67211044 -78.04991886 23.83820288 -80 24 C-74.39026156 26.27060842 -69.09626437 27.75204887 -63.125 28.6875 C-62.34141113 28.81487549 -61.55782227 28.94225098 -60.75048828 29.07348633 C-55.10955742 29.94361129 -49.71302513 30.2764367 -44 30 C-44.763125 29.443125 -45.52625 28.88625 -46.3125 28.3125 C-48.98155503 26.01587126 -50.43623879 24.12752243 -52 21 C-52 20.34 -52 19.68 -52 19 C-51.01 19 -50.02 19 -49 19 C-48.7525 19.763125 -48.505 20.52625 -48.25 21.3125 C-46.85815317 24.30497069 -45.81442085 25.34445832 -43 27 C-36.07437623 29.30317256 -25.85927474 29.41815295 -19.25 26.1875 C-16.78084331 24.52556761 -15.00919535 23.11207584 -13 21 C-14.1858237 24.37503669 -15.27573689 26.64722731 -18 29 C-12.76773914 29.21010374 -8.24607787 28.50926002 -3.25 27.0625 C-2.59128906 26.88009766 -1.93257813 26.69769531 -1.25390625 26.50976562 C1.52170556 25.73563454 4.26607889 24.91130704 7 24 C6.18015625 23.76925781 5.3603125 23.53851563 4.515625 23.30078125 C-6.29141475 20.03022975 -6.29141475 20.03022975 -9 15 C-10.53784153 10.3864754 -10.74741859 6.56278431 -8.625 2.125 C-5.91084483 -1.42427984 -4.11732635 -1.30549372 0 0 Z " fill="#ABA9A9" transform="translate(106,34)"/>
<path d="M0 0 C7.14579325 6.41289138 10.8191317 14.53121097 14.59765625 23.17578125 C15.05527344 24.19542969 15.51289062 25.21507812 15.984375 26.265625 C19.01412154 33.67521567 19.93665221 40.74035713 17.59765625 48.48828125 C12.98161864 54.69108179 6.89472162 57.98666164 -0.40234375 60.17578125 C-1.72234375 60.17578125 -3.04234375 60.17578125 -4.40234375 60.17578125 C-4.07234375 61.49578125 -3.74234375 62.81578125 -3.40234375 64.17578125 C-13.35292667 66.00981026 -23.34606505 67.12545881 -33.40234375 68.17578125 C-33.89734375 74.11578125 -33.89734375 74.11578125 -34.40234375 80.17578125 C-33.04109375 80.07265625 -31.67984375 79.96953125 -30.27734375 79.86328125 C-26.86393675 79.87945853 -24.63897146 80.16873285 -21.83984375 82.17578125 C-19.08866589 85.56184631 -18.67394431 87.03122747 -19 91.24609375 C-19.79461939 95.05718093 -21.70667177 97.48010927 -24.40234375 100.17578125 C-26.56640625 100.37109375 -26.56640625 100.37109375 -29.02734375 100.30078125 C-29.84460938 100.28273438 -30.661875 100.2646875 -31.50390625 100.24609375 C-32.13039063 100.22289063 -32.756875 100.1996875 -33.40234375 100.17578125 C-33.73234375 99.51578125 -34.06234375 98.85578125 -34.40234375 98.17578125 C-33.46261719 97.99402344 -33.46261719 97.99402344 -32.50390625 97.80859375 C-31.68664062 97.64101562 -30.869375 97.4734375 -30.02734375 97.30078125 C-29.21523437 97.13835937 -28.403125 96.9759375 -27.56640625 96.80859375 C-25.21560452 96.30919193 -25.21560452 96.30919193 -23.40234375 94.17578125 C-23.08471915 92.26571819 -23.08471915 92.26571819 -23.15234375 90.17578125 C-23.1471875 89.47453125 -23.14203125 88.77328125 -23.13671875 88.05078125 C-23.2452886 85.93221435 -23.2452886 85.93221435 -25.40234375 84.17578125 C-28.94415474 83.86509608 -32.46554632 83.79645927 -36.01953125 83.71484375 C-39.86241717 83.10246701 -41.02677697 82.17209915 -43.40234375 79.17578125 C-41.09234375 79.50578125 -38.78234375 79.83578125 -36.40234375 80.17578125 C-36.40234375 75.22578125 -36.40234375 70.27578125 -36.40234375 65.17578125 C-35.74234375 64.84578125 -35.08234375 64.51578125 -34.40234375 64.17578125 C-35.9646875 64.15451172 -35.9646875 64.15451172 -37.55859375 64.1328125 C-48.24508159 63.83028183 -57.37651831 61.83257626 -67.40234375 58.17578125 C-67.43900146 58.84295166 -67.47565918 59.51012207 -67.51342773 60.19750977 C-68.00746 67.18785261 -69.42760611 73.42889136 -71.46484375 80.11328125 C-74.29997561 89.94267678 -76.37460696 98.42131231 -72.40234375 108.17578125 C-72.40234375 109.16578125 -72.40234375 110.15578125 -72.40234375 111.17578125 C-73.88734375 110.68078125 -73.88734375 110.68078125 -75.40234375 110.17578125 C-80.3615151 98.58470217 -78.14197184 87.73554445 -74.2824707 76.27441406 C-72.10034369 69.66036401 -71.12799287 63.1073549 -70.40234375 56.17578125 C-71.12164062 56.09714844 -71.8409375 56.01851563 -72.58203125 55.9375 C-76.10343549 54.98642822 -77.84261493 53.43901994 -80.52734375 50.98828125 C-81.37554687 50.23160156 -82.22375 49.47492188 -83.09765625 48.6953125 C-88.29121984 43.01760315 -88.9156168 37.50901538 -89.58203125 30.1015625 C-90.12605959 26.98638294 -90.12605959 26.98638294 -92.85546875 25.421875 C-94.11617187 24.80505859 -94.11617187 24.80505859 -95.40234375 24.17578125 C-98.00533198 21.05219537 -98.41898767 19.65845498 -98.27734375 15.55078125 C-97.14661453 11.18939713 -97.14661453 11.18939713 -94.40234375 9.17578125 C-91.328125 8.47265625 -91.328125 8.47265625 -87.71484375 7.92578125 C-81.72824583 6.75302207 -78.56175764 5.29320079 -74.31640625 1.01171875 C-54.52455746 -17.97229947 -20.68942113 -15.71050353 0 0 Z M-55.40234375 -6.82421875 C-56.56636719 -6.31503906 -57.73039062 -5.80585938 -58.9296875 -5.28125 C-64.59693911 -2.5482455 -69.52294386 -0.02432337 -74.02734375 4.48828125 C-78.28782095 8.66083115 -81.99045632 9.06095765 -87.77734375 9.703125 C-90.64601188 10.0044598 -90.64601188 10.0044598 -93.21484375 12.42578125 C-94.71154812 15.89183348 -94.56614256 17.60679824 -93.40234375 21.17578125 C-92.08916113 23.07536206 -92.08916113 23.07536206 -90.40234375 24.17578125 C-89.74234375 24.17578125 -89.08234375 24.17578125 -88.40234375 24.17578125 C-88.00015625 22.53609375 -88.00015625 22.53609375 -87.58984375 20.86328125 C-86.52570636 17.55885462 -86.05579711 16.22617703 -83.40234375 14.17578125 C-83.89734375 15.04203125 -84.39234375 15.90828125 -84.90234375 16.80078125 C-87.64707441 23.26206109 -87.48224929 31.16968004 -85.67578125 37.87109375 C-81.73655345 47.31883521 -75.89030213 51.64743871 -66.66015625 55.5625 C-44.5808868 64.21080495 -17.07760059 64.59203141 4.87036133 55.20361328 C9.91147075 52.78757146 13.0235451 50.32400356 15.59765625 45.17578125 C18.12638451 32.22429479 11.3888815 19.88361873 4.38574219 9.35351562 C-3.43375334 -1.19308759 -14.76582798 -7.05884683 -27.40234375 -9.82421875 C-30.6493139 -10.06609237 -33.89722666 -10.05523848 -37.15234375 -10.07421875 C-38.02117187 -10.09484375 -38.89 -10.11546875 -39.78515625 -10.13671875 C-45.63980433 -10.1718818 -50.09969072 -9.27234905 -55.40234375 -6.82421875 Z " fill="#1D2025" transform="translate(103.40234375,15.82421875)"/>
<path d="M0 0 C0.05410687 1.77049689 0.09284119 3.54146849 0.125 5.3125 C0.14820313 6.29863281 0.17140625 7.28476563 0.1953125 8.30078125 C0 11 0 11 -2 14 C-2.74030281 20.21085218 -2.49946602 24.75080097 1 30 C1.06006592 32.33256008 1.06509094 34.66757474 1 37 C-1.41639628 37.17172359 -3.83298511 37.33740082 -6.25 37.5 C-6.91257813 37.54769531 -7.57515625 37.59539062 -8.2578125 37.64453125 C-14.54629505 38.0598084 -20.64910503 38 -27 38 C-27 27.11 -27 16.22 -27 5 C-26.34 4.67 -25.68 4.34 -25 4 C-26.13179687 3.73445313 -27.26359375 3.46890625 -28.4296875 3.1953125 C-29.91154832 2.8389156 -31.3933143 2.48212424 -32.875 2.125 C-33.62136719 1.95097656 -34.36773437 1.77695313 -35.13671875 1.59765625 C-40.7734375 0.2265625 -40.7734375 0.2265625 -43 -2 C-27.71290498 -4.19788786 -14.8180345 -4.97637141 0 0 Z " fill="#D44032" transform="translate(115,85)"/>
<path d="M0 0 C8.51341838 6.7620866 12.67949408 15.92043843 17.05078125 25.62890625 C17.51097656 26.64984375 17.97117187 27.67078125 18.4453125 28.72265625 C21.44444234 36.09860809 22.42198693 43.17248779 20.05078125 50.87890625 C15.29256528 57.4214532 9.35814163 61.3666918 2.05078125 64.62890625 C2.96601562 64.89445312 3.88125 65.16 4.82421875 65.43359375 C6.01273437 65.78679687 7.20125 66.14 8.42578125 66.50390625 C9.60914062 66.85195312 10.7925 67.2 12.01171875 67.55859375 C15.05078125 68.62890625 15.05078125 68.62890625 17.05078125 70.62890625 C17.32421875 72.6171875 17.32421875 72.6171875 17.42578125 74.94140625 C17.80465359 79.31247051 19.00381565 81.3915053 22.05078125 84.62890625 C23.40887836 88.70319757 23.94327069 92.45953834 22.26171875 96.546875 C21.56844263 97.87256712 20.85955014 99.19018851 20.13671875 100.5 C18.60446001 103.50388853 17.65164692 106.62720409 16.6640625 109.84375 C16.05078125 111.62890625 16.05078125 111.62890625 15.05078125 112.62890625 C13.49325074 112.85561533 11.92700766 113.02325717 10.359375 113.1640625 C9.41513672 113.25107422 8.47089844 113.33808594 7.49804688 113.42773438 C6.50482422 113.51474609 5.51160156 113.60175781 4.48828125 113.69140625 C2.99264648 113.82772461 2.99264648 113.82772461 1.46679688 113.96679688 C-1.00487577 114.19149439 -3.47685131 114.41200976 -5.94921875 114.62890625 C-5.45421875 113.14390625 -5.45421875 113.14390625 -4.94921875 111.62890625 C-3.66144531 111.56832031 -2.37367187 111.50773437 -1.046875 111.4453125 C0.63152284 111.36092378 2.30990761 111.27627495 3.98828125 111.19140625 C4.83841797 111.15208984 5.68855469 111.11277344 6.56445312 111.07226562 C7.37333984 111.03037109 8.18222656 110.98847656 9.015625 110.9453125 C9.76448975 110.90865479 10.51335449 110.87199707 11.28491211 110.83422852 C13.07539451 110.81119562 13.07539451 110.81119562 14.05078125 109.62890625 C14.15390625 108.55640625 14.25703125 107.48390625 14.36328125 106.37890625 C15.11940251 102.25460845 16.31736225 100.70400263 19.05078125 97.62890625 C20.54282194 93.15278418 20.72860528 88.66237834 19.23828125 84.19140625 C18.04217916 82.31272686 18.04217916 82.31272686 15.05078125 81.62890625 C15.05078125 77.99890625 15.05078125 74.36890625 15.05078125 70.62890625 C13.37048828 70.21318359 13.37048828 70.21318359 11.65625 69.7890625 C10.18357823 69.42323958 8.71092283 69.05735072 7.23828125 68.69140625 C6.50029297 68.50900391 5.76230469 68.32660156 5.00195312 68.13867188 C1.98017141 67.38664475 -0.99378593 66.61405052 -3.94921875 65.62890625 C-3.94921875 64.63890625 -3.94921875 63.64890625 -3.94921875 62.62890625 C-3.17578125 62.40976563 -2.40234375 62.190625 -1.60546875 61.96484375 C5.01631261 59.94880636 11.26034575 57.84925263 16.05078125 52.62890625 C19.01254472 46.71512196 18.94528124 40.39373218 17.43359375 34.03125 C16.4503068 31.14665156 15.30055693 28.40930607 14.05078125 25.62890625 C13.77169922 24.99726562 13.49261719 24.365625 13.20507812 23.71484375 C6.24974052 8.17977971 -1.98910104 -0.08170047 -17.94921875 -6.37109375 C-23.91015543 -8.40804216 -29.62590041 -8.67831372 -35.88671875 -8.62109375 C-36.72912109 -8.62882813 -37.57152344 -8.6365625 -38.43945312 -8.64453125 C-47.47218931 -8.61671682 -55.04247915 -6.7892064 -63.07421875 -2.68359375 C-64.11896362 -2.15838135 -64.11896362 -2.15838135 -65.18481445 -1.62255859 C-69.67814143 0.72597339 -73.27207468 3.19325222 -76.4921875 7.18359375 C-80.42681888 11.08657931 -86.20401165 11.1987015 -91.42578125 11.87109375 C-94.54370753 12.80743694 -95.4174943 13.79237949 -96.94921875 16.62890625 C-96.87831813 20.59934074 -96.59728305 22.82962694 -94.07421875 25.94140625 C-91.85492753 27.75174436 -91.85492753 27.75174436 -88.94921875 29.62890625 C-88.39453125 32.38671875 -88.39453125 32.38671875 -88.07421875 35.75390625 C-86.87327606 44.60963815 -83.58076564 49.8717197 -76.6640625 55.44140625 C-74.53942762 56.91267961 -72.41997826 57.88019125 -69.94921875 58.62890625 C-69.77001172 64.19050372 -70.27998447 68.99751977 -71.76171875 74.37890625 C-71.94114014 75.07137451 -72.12056152 75.76384277 -72.30541992 76.47729492 C-73.12965536 79.64875387 -73.99911253 82.79971197 -74.91796875 85.9453125 C-76.87220218 92.88465066 -77.10571144 98.51819376 -75.94921875 105.62890625 C-75.76359375 106.84578125 -75.57796875 108.06265625 -75.38671875 109.31640625 C-75.17015625 110.46109375 -75.17015625 110.46109375 -74.94921875 111.62890625 C-77.9355719 108.90223598 -78.81386631 106.87277808 -79.2578125 102.79296875 C-79.59147501 93.63241624 -77.98859293 85.9371902 -75.17163086 77.21533203 C-73.29526758 71.3397827 -72.32319208 65.78754834 -71.94921875 59.62890625 C-72.56796875 59.48864014 -73.18671875 59.34837402 -73.82421875 59.20385742 C-78.98385645 57.80783872 -83.09131203 53.71257789 -86.32421875 49.62890625 C-89.83449338 43.14839923 -90.20667436 37.86626964 -89.94921875 30.62890625 C-90.69171875 30.40203125 -91.43421875 30.17515625 -92.19921875 29.94140625 C-95.67980106 28.28021924 -97.02144128 26.98466703 -98.94921875 23.62890625 C-99.49647657 20.53330643 -99.69471585 17.69311858 -98.94921875 14.62890625 C-95.89103794 10.43806588 -92.71008949 9.86757156 -87.76171875 8.87890625 C-81.47387327 7.43839613 -77.83045084 5.26929089 -73.30078125 0.72265625 C-53.22976345 -17.14788452 -20.80467071 -14.74434034 0 0 Z " fill="#8A8A8C" transform="translate(102.94921875,13.37109375)"/>
<path d="M0 0 C0.52207031 0.37511719 1.04414063 0.75023437 1.58203125 1.13671875 C21.44682107 14.94814005 42.50328694 15.70873918 66 16 C66 16.66 66 17.32 66 18 C68.97 18 71.94 18 75 18 C75.33 17.34 75.66 16.68 76 16 C76.99 16.99 77.98 17.98 79 19 C69.04941708 20.83402901 59.0562787 21.94967756 49 23 C48.67 26.96 48.34 30.92 48 35 C50.041875 34.8453125 50.041875 34.8453125 52.125 34.6875 C55.538407 34.70367728 57.76337229 34.9929516 60.5625 37 C63.31367786 40.38606506 63.72839944 41.85544622 63.40234375 46.0703125 C62.60772436 49.88139968 60.69567198 52.30432802 58 55 C55.8359375 55.1953125 55.8359375 55.1953125 53.375 55.125 C52.55773437 55.10695312 51.74046875 55.08890625 50.8984375 55.0703125 C50.27195313 55.04710937 49.64546875 55.02390625 49 55 C48.67 54.34 48.34 53.68 48 53 C48.62648437 52.87882812 49.25296875 52.75765625 49.8984375 52.6328125 C51.12433594 52.38144531 51.12433594 52.38144531 52.375 52.125 C53.59316406 51.88136719 53.59316406 51.88136719 54.8359375 51.6328125 C57.18673923 51.13341068 57.18673923 51.13341068 59 49 C59.3176246 47.08993694 59.3176246 47.08993694 59.25 45 C59.25515625 44.29875 59.2603125 43.5975 59.265625 42.875 C59.15705515 40.7564331 59.15705515 40.7564331 57 39 C53.45818901 38.68931483 49.93679743 38.62067802 46.3828125 38.5390625 C42.53992658 37.92668576 41.37556678 36.9963179 39 34 C41.31 34.33 43.62 34.66 46 35 C46 30.05 46 25.1 46 20 C46.66 19.67 47.32 19.34 48 19 C46.9584375 18.98582031 45.916875 18.97164062 44.84375 18.95703125 C34.15726216 18.65450058 25.02582544 16.65679501 15 13 C14.94501343 14.00075562 14.94501343 14.00075562 14.88891602 15.02172852 C14.39488375 22.01207136 12.97473764 28.25311011 10.9375 34.9375 C8.10236814 44.76689553 6.02773679 53.24553106 10 63 C10 63.99 10 64.98 10 66 C9.01 65.67 8.02 65.34 7 65 C2.04082865 53.40892092 4.26037191 42.5597632 8.11987305 31.09863281 C10.30200006 24.48458276 11.27435088 17.93157365 12 11 C11.25363281 10.89300781 10.50726563 10.78601563 9.73828125 10.67578125 C6.83098585 9.95828895 5.43439854 9.1211055 3.1875 7.1875 C2.58292969 6.68605469 1.97835938 6.18460937 1.35546875 5.66796875 C0 4 0 4 0 0 Z " fill="#1B1E22" transform="translate(21,61)"/>
<path d="M0 0 C2.48705465 1.14787138 4.56760582 2.4036308 6.8125 4 C10.29575939 6.18557452 13.03692558 7.04886214 17 8 C17.33 9.65 17.66 11.3 18 13 C27.405 15.475 27.405 15.475 37 18 C35 23 35 23 33.28710938 24.2980957 C30.25513423 25.22859619 27.57812313 25.24162192 24.40625 25.23046875 C23.12878906 25.22853516 21.85132812 25.22660156 20.53515625 25.22460938 C19.54153076 25.21530396 19.54153076 25.21530396 18.52783203 25.20581055 C16.50670746 25.18756057 14.48604214 25.18530105 12.46484375 25.18554688 C1.68702589 25.13660623 1.68702589 25.13660623 -2 24 C-2.3690205 7.1070615 -2.3690205 7.1070615 0 0 Z " fill="#F9F9FA" transform="translate(50,108)"/>
<path d="M0 0 C0 0.33 0 0.66 0 1 C-0.61931396 1.01981934 -1.23862793 1.03963867 -1.87670898 1.06005859 C-4.73067389 1.15635231 -7.58400857 1.26560097 -10.4375 1.375 C-11.41138672 1.4059375 -12.38527344 1.436875 -13.38867188 1.46875 C-22.82135718 1.84731931 -30.69929199 3.38050113 -39.125 7.6875 C-40.16974487 8.2127124 -40.16974487 8.2127124 -41.2355957 8.74853516 C-45.72892268 11.09706714 -49.32285593 13.56434597 -52.54296875 17.5546875 C-56.47760013 21.45767306 -62.2547929 21.56979525 -67.4765625 22.2421875 C-70.59448878 23.17853069 -71.46827555 24.16347324 -73 27 C-72.92909938 30.97043449 -72.6480643 33.20072069 -70.125 36.3125 C-67.90570878 38.12283811 -67.90570878 38.12283811 -65 40 C-64.4453125 42.7578125 -64.4453125 42.7578125 -64.125 46.125 C-62.92405731 54.9807319 -59.63154689 60.24281345 -52.71484375 65.8125 C-50.59020887 67.28377336 -48.47075951 68.251285 -46 69 C-45.82079297 74.56159747 -46.33076572 79.36861352 -47.8125 84.75 C-47.99192139 85.44246826 -48.17134277 86.13493652 -48.35620117 86.84838867 C-49.18043661 90.01984762 -50.04989378 93.17080572 -50.96875 96.31640625 C-52.92298343 103.25574441 -53.15649269 108.88928751 -52 116 C-51.814375 117.216875 -51.62875 118.43375 -51.4375 119.6875 C-51.2209375 120.8321875 -51.2209375 120.8321875 -51 122 C-53.98635315 119.27332973 -54.86464756 117.24387183 -55.30859375 113.1640625 C-55.64225626 104.00350999 -54.03937418 96.30828395 -51.22241211 87.58642578 C-49.34604883 81.71087645 -48.37397333 76.15864209 -48 70 C-48.61875 69.85973389 -49.2375 69.71946777 -49.875 69.57495117 C-55.0346377 68.17893247 -59.14209328 64.08367164 -62.375 60 C-65.88527463 53.51949298 -66.25745561 48.23736339 -66 41 C-66.7425 40.773125 -67.485 40.54625 -68.25 40.3125 C-71.73058231 38.65131299 -73.07222253 37.35576078 -75 34 C-75.54725782 30.90440018 -75.7454971 28.06421233 -75 25 C-71.94181919 20.80915963 -68.76087074 20.23866531 -63.8125 19.25 C-57.52465452 17.80948988 -53.88123209 15.64038464 -49.3515625 11.09375 C-36.6651083 -0.20183049 -16.23018449 -3.7477521 0 0 Z " fill="#98989A" transform="translate(79,3)"/>
<path d="M0 0 C1.340625 0.28875 2.68125 0.5775 4.0625 0.875 C5.19365234 1.11863281 5.19365234 1.11863281 6.34765625 1.3671875 C9.59159634 2.1411467 12.79332698 3.08380771 16 4 C16 15.22 16 26.44 16 38 C4.75 35.75 4.75 35.75 0 34 C0 33.34 0 32.68 0 32 C0.61488281 31.89042969 1.22976562 31.78085938 1.86328125 31.66796875 C2.67152344 31.50941406 3.47976562 31.35085937 4.3125 31.1875 C5.11300781 31.03667969 5.91351563 30.88585937 6.73828125 30.73046875 C9.29039274 29.90621167 10.35316788 29.09274359 12 27 C13.23865559 23.28403324 13.66860376 19.8561333 13 16 C10.26125052 12.66214907 7.83069535 11.80193544 3.6875 11.25 C2.470625 11.1675 1.25375 11.085 0 11 C0 7.37 0 3.74 0 0 Z " fill="#F19B7C" transform="translate(70,85)"/>
<path d="M0 0 C4.0917723 1.24214516 5.24480174 2.50622582 7.5 6.0625 C9.24933583 9.56117167 8.33925509 13.34202272 7.5 17.0625 C5.875 19.625 5.875 19.625 3.5 21.0625 C-0.567687 21.71623541 -2.55915558 21.73797804 -5.9375 19.3125 C-8.28368772 14.43242955 -8.49406662 9.37637085 -7.5 4.0625 C-4.95334728 0.73648373 -4.28190863 0.07646265 0 0 Z " fill="#212427" transform="translate(39.5,34.9375)"/>
<path d="M0 0 C1.45009618 0.37614777 2.89668419 0.76602776 4.33984375 1.16796875 C5.07267578 1.35939453 5.80550781 1.55082031 6.56054688 1.74804688 C11.89249786 3.1630458 11.89249786 3.1630458 14.27734375 4.35546875 C14.27734375 7.98546875 14.27734375 11.61546875 14.27734375 15.35546875 C15.59734375 15.68546875 16.91734375 16.01546875 18.27734375 16.35546875 C21.09817685 19.88151013 20.42012539 24.07201942 20.27734375 28.35546875 C19.61734375 28.35546875 18.95734375 28.35546875 18.27734375 28.35546875 C16.88796298 30.31694749 15.55130265 32.31713451 14.27734375 34.35546875 C10.34169075 30.5909311 10.34169075 30.5909311 10.1796875 27.48046875 C10.19128906 26.77921875 10.20289062 26.07796875 10.21484375 25.35546875 C10.22386719 24.65421875 10.23289062 23.95296875 10.2421875 23.23046875 C10.25378906 22.61171875 10.26539062 21.99296875 10.27734375 21.35546875 C10.27734375 20.69546875 10.27734375 20.03546875 10.27734375 19.35546875 C10.27734375 16.41953742 10.50233802 13.58990459 10.77734375 10.66796875 C10.87015625 9.67410156 10.96296875 8.68023437 11.05859375 7.65625 C11.13078125 6.89699219 11.20296875 6.13773437 11.27734375 5.35546875 C10.16359375 5.25234375 9.04984375 5.14921875 7.90234375 5.04296875 C2.84180073 4.42627175 -1.88888268 2.93040727 -6.72265625 1.35546875 C-3.72265625 -0.64453125 -3.72265625 -0.64453125 0 0 Z " fill="#221F22" transform="translate(103.72265625,79.64453125)"/>
<path d="M0 0 C2.22173121 1.8386741 2.89662792 3.24241009 3.28515625 6.08984375 C3.46926756 10.90075239 3.05785751 14.08594239 0 18 C-1 19 -1 19 -3.375 19.3125 C-6 19 -6 19 -7.75 17.1875 C-10.10982471 13.05780676 -10.32391026 9.69669882 -10 5 C-7.50044605 -0.22634008 -5.68627694 -1.80296586 0 0 Z " fill="#1D2023" transform="translate(106,34)"/>
<path d="M0 0 C3.8749528 5.8124292 3.59525655 11.11682219 3 18 C0.69959594 23.04319352 -2.29232978 25.22064321 -7 28 C-9.95154519 29.09893529 -12.95117837 29.90517036 -16 30.6875 C-17.17175781 31.00557617 -17.17175781 31.00557617 -18.3671875 31.33007812 C-26.90596838 33.60852387 -34.8653187 34.1825129 -43.6875 34.1875 C-45.36875977 34.20586914 -45.36875977 34.20586914 -47.08398438 34.22460938 C-54.11444482 34.23685046 -61.22546815 34.08378393 -68 32 C-68.33 31.34 -68.66 30.68 -69 30 C-67.97003906 30.0721875 -66.94007812 30.144375 -65.87890625 30.21875 C-32.67010157 33.1374855 -32.67010157 33.1374855 -3 21 C0.68482492 16.94669259 0.28870392 12.7294887 0.203125 7.5234375 C0.09113902 4.87493401 0.09113902 4.87493401 -1 2 C-0.67 1.34 -0.34 0.68 0 0 Z " fill="#EBE3E8" transform="translate(116,43)"/>
<path d="M0 0 C0 0.33 0 0.66 0 1 C-14.58061701 3.31635334 -28.00637844 4.83719037 -42 -1 C-42 -1.33 -42 -1.66 -42 -2 C-27.10784135 -4.14110625 -14.46676904 -5.30369274 0 0 Z " fill="#E8AF91" transform="translate(114,85)"/>
<path d="M0 0 C0.33 0 0.66 0 1 0 C1.03738281 0.66386719 1.07476562 1.32773437 1.11328125 2.01171875 C1.4899103 7.07036379 1.81205295 10.84180819 5 15 C1.85069107 16.04976964 -0.38814456 16.10131595 -3.6875 16.0625 C-4.68136719 16.05347656 -5.67523438 16.04445313 -6.69921875 16.03515625 C-7.83810547 16.01775391 -7.83810547 16.01775391 -9 16 C-11.40201504 11.80120206 -11.15864149 8.75924459 -11 4 C-9.54176788 3.9729957 -8.08339325 3.95360213 -6.625 3.9375 C-5.81289063 3.92589844 -5.00078125 3.91429687 -4.1640625 3.90234375 C-2 4 -2 4 0 5 C0 3.35 0 1.7 0 0 Z " fill="#BE6487" transform="translate(31,41)"/>
<path d="M0 0 C0.66 0 1.32 0 2 0 C1.4740625 0.804375 1.4740625 0.804375 0.9375 1.625 C-0.33302894 4.84367331 0.01986527 6.70954769 1 10 C2.93704708 11.89290509 2.93704708 11.89290509 5 13 C5.0928125 11.4221875 5.0928125 11.4221875 5.1875 9.8125 C6.13408616 5.3708265 7.59156258 3.88406243 11 1 C10.505 2.19625 10.01 3.3925 9.5 4.625 C6.78380148 12.87756489 6.66937956 21.67514617 10.125 29.6875 C10.51945312 30.45449219 10.91390625 31.22148438 11.3203125 32.01171875 C11.54460938 32.66785156 11.76890625 33.32398438 12 34 C11.34 34.99 10.68 35.98 10 37 C5.50735668 30.97039975 4.31205343 26.34658717 3.75 18.85546875 C3.27410164 15.80064613 3.27410164 15.80064613 0.55078125 14.26171875 C-0.71185547 13.63716797 -0.71185547 13.63716797 -2 13 C-4.60609964 9.58511082 -5.36667611 7.27788797 -5 3 C-4.34 3.66 -3.68 4.32 -3 5 C-2.54625 4.175 -2.0925 3.35 -1.625 2.5 C-1.08875 1.675 -0.5525 0.85 0 0 Z " fill="#232328" transform="translate(10,27)"/>
<path d="M0 0 C0.33 0 0.66 0 1 0 C1.2475 1.19625 1.495 2.3925 1.75 3.625 C3.61099663 10.91497302 8.00710429 15.69260621 14 20 C16.74547874 21.37050596 16.74547874 21.37050596 19 22 C19.17920703 27.56159747 18.66923428 32.36861352 17.1875 37.75 C16.91836792 38.78870239 16.91836792 38.78870239 16.64379883 39.84838867 C15.81956339 43.01984762 14.95010622 46.17080572 14.03125 49.31640625 C12.07701657 56.25574441 11.84350731 61.88928751 13 69 C13.185625 70.216875 13.37125 71.43375 13.5625 72.6875 C13.7790625 73.8321875 13.7790625 73.8321875 14 75 C11.01364685 72.27332973 10.13535244 70.24387183 9.69140625 66.1640625 C9.35774374 57.00350999 10.96062582 49.30828395 13.77758789 40.58642578 C15.65395117 34.71087645 16.62602667 29.15864209 17 23 C16.071875 22.78960083 16.071875 22.78960083 15.125 22.57495117 C10.00838635 21.19057328 5.91750771 17.11066723 2.625 13.125 C0.66776789 9.36109209 -0.23478882 6.17387918 -1 2 C-0.67 1.34 -0.34 0.68 0 0 Z " fill="#8F8F92" transform="translate(14,50)"/>
<path d="M0 0 C2.64 0 5.28 0 8 0 C7.67 5.28 7.34 10.56 7 16 C2 16 2 16 -0.875 13.375 C-3 10 -3 10 -2.9375 6.875 C-2.13507167 4.41421978 -1.29124778 2.23816282 0 0 Z " fill="#F8F8F9" transform="translate(60,80)"/>
<path d="M0 0 C0.95648438 -0.02578125 1.91296875 -0.0515625 2.8984375 -0.078125 C6.00392147 0.29560086 7.33036066 1.18373709 9.625 3.25 C8.69396676 5.57758311 7.97117872 6.99357132 5.9375 8.5 C1.7105234 9.87091133 -2.1982041 9.6422653 -6.375 8.25 C-8.375 5.25 -8.375 5.25 -8.125 3.125 C-6.65447577 -0.55131058 -3.51486451 0.05653938 0 0 Z " fill="#1B1F23" transform="translate(76.375,48.75)"/>
<path d="M0 0 C0.95777344 0.27714844 1.91554687 0.55429688 2.90234375 0.83984375 C11.14943014 3.1178595 18.93151828 4.48908303 27.50170898 4.67163086 C31.20357399 4.77087066 32.83330772 4.88887181 36 7 C32.04 6.67 28.08 6.34 24 6 C23.67 7.32 23.34 8.64 23 10 C15.14868332 9.65259661 8.35074375 7.71548094 1 5 C0.67 3.35 0.34 1.7 0 0 Z " fill="#393938" transform="translate(36,74)"/>
<path d="M0 0 C0.67546875 0.20496094 1.3509375 0.40992187 2.046875 0.62109375 C2.93890625 0.89050781 3.8309375 1.15992187 4.75 1.4375 C5.63171875 1.70433594 6.5134375 1.97117187 7.421875 2.24609375 C8.27265625 2.49488281 9.1234375 2.74367188 10 3 C10.6290625 3.185625 11.258125 3.37125 11.90625 3.5625 C14.84135655 4.17580585 17.7604735 4.35323314 20.75 4.5625 C21.92046875 4.64628906 23.0909375 4.73007813 24.296875 4.81640625 C25.18890625 4.87699219 26.0809375 4.93757813 27 5 C27 5.33 27 5.66 27 6 C22.545 6.495 22.545 6.495 18 7 C18 17.89 18 28.78 18 40 C17.01 40.495 17.01 40.495 16 41 C16 29.45 16 17.9 16 6 C13.69 5.67 11.38 5.34 9 5 C5.94055596 4.13037894 3.00180385 3.06217675 0 2 C0 5.63 0 9.26 0 13 C-0.33 13 -0.66 13 -1 13 C-1.02686553 11.02090602 -1.04633375 9.04171029 -1.0625 7.0625 C-1.07410156 5.96035156 -1.08570312 4.85820313 -1.09765625 3.72265625 C-1 1 -1 1 0 0 Z " fill="#5A413B" transform="translate(70,83)"/>
<path d="M0 0 C0.66 0.33 1.32 0.66 2 1 C2 7.27 2 13.54 2 20 C-3.48821566 18.96168893 -8.74565027 17.93581306 -14 16 C-14 15.34 -14 14.68 -14 14 C-13.38511719 13.89042969 -12.77023438 13.78085938 -12.13671875 13.66796875 C-11.32847656 13.50941406 -10.52023438 13.35085937 -9.6875 13.1875 C-8.88699219 13.03667969 -8.08648437 12.88585937 -7.26171875 12.73046875 C-4.66577718 11.89205584 -3.62440509 11.17908 -2 9 C-1.21643098 6.73606029 -1.21643098 6.73606029 -0.8125 4.3125 C-0.65394531 3.50425781 -0.49539062 2.69601563 -0.33203125 1.86328125 C-0.22246094 1.24839844 -0.11289063 0.63351563 0 0 Z " fill="#BF3B2A" transform="translate(84,103)"/>
<path d="M0 0 C4.6875 1.82291667 4.6875 1.82291667 6.875 3.0625 C9.17452462 4.19328217 9.17452462 4.19328217 12.625 4.5 C16 5 16 5 18 7 C19.98821313 7.39764263 21.98944339 7.73775349 24 8 C24 8.33 24 8.66 24 9 C22.02 9 20.04 9 18 9 C18 9.66 18 10.32 18 11 C23.28 12.32 28.56 13.64 34 15 C34 15.99 34 16.98 34 18 C31.58179317 17.54884201 29.16567137 17.08938045 26.75 16.625 C26.06808594 16.49867187 25.38617188 16.37234375 24.68359375 16.2421875 C21.17515024 15.56093633 18.08960327 14.83146585 15 13 C15 11.35 15 9.7 15 8 C14.01 7.95875 13.02 7.9175 12 7.875 C7.08713997 7.2119146 3.58122873 4.27426627 0 1 C0 0.67 0 0.34 0 0 Z " fill="#252427" transform="translate(52,108)"/>
<path d="M0 0 C1.60725635 3.21451269 1.05748185 6.43612536 1 10 C-0.72880982 10.05449838 -2.45812712 10.09301688 -4.1875 10.125 C-5.15042969 10.14820313 -6.11335938 10.17140625 -7.10546875 10.1953125 C-10.12812778 9.9913544 -12.26769985 9.26874632 -15 8 C-14.4225 7.79375 -13.845 7.5875 -13.25 7.375 C-10.19540291 5.50830178 -8.90583572 2.9858093 -7 0 C-4.30234372 -1.34882814 -2.84835666 -0.80338265 0 0 Z " fill="#C6688C" transform="translate(116,46)"/>
<path d="M0 0 C4.30063136 0.51766859 6.26346854 1.4777498 9.375 4.40625 C9.045 5.39625 8.715 6.38625 8.375 7.40625 C7.83101562 7.08011719 7.28703125 6.75398438 6.7265625 6.41796875 C3.90487121 5.20398529 1.81138173 5.17336563 -1.25 5.21875 C-2.21164063 5.22519531 -3.17328125 5.23164062 -4.1640625 5.23828125 C-6.62910451 5.2477735 -6.62910451 5.2477735 -8.625 6.40625 C-8.295 8.05625 -7.965 9.70625 -7.625 11.40625 C-10 10.71875 -10 10.71875 -12.625 9.40625 C-13.9375 6.78125 -13.9375 6.78125 -14.625 4.40625 C-10.42979658 -0.85340802 -6.32439144 -0.15810979 0 0 Z " fill="#746B62" transform="translate(77.625,44.59375)"/>
<path d="M0 0 C0.99 0 1.98 0 3 0 C3.2475 0.763125 3.495 1.52625 3.75 2.3125 C5.14184683 5.30497069 6.18557915 6.34445832 9 8 C15.92562377 10.30317256 26.14072526 10.41815295 32.75 7.1875 C35.21915669 5.52556761 36.99080465 4.11207584 39 2 C37.64224132 6.44357385 35.90116959 8.48591293 32 11 C24.68763595 13.92494562 16.5071157 14.3042216 9.125 11.4375 C4.60043291 9.17115491 2.49773671 6.3508962 0 2 C0 1.34 0 0.68 0 0 Z " fill="#333538" transform="translate(54,53)"/>
<path d="M0 0 C1.11272613 2.78181534 1.0066813 3.97951069 0.0625 6.875 C-2.76116393 15.94967168 -1.53372913 25.30277467 2.125 33.890625 C3 36 3 36 3 38 C1.35 37.67 -0.3 37.34 -2 37 C-7.14643297 24.86912229 -5.17987483 14.18710493 -1 2 C-0.67 1.34 -0.34 0.68 0 0 Z " fill="#6F6B68" transform="translate(33,91)"/>
<path d="M0 0 C0.33 0.66 0.66 1.32 1 2 C1.66 2 2.32 2 3 2 C2.566875 3.52367188 2.566875 3.52367188 2.125 5.078125 C-0.65109342 15.21716966 -3.18136351 24.91455122 1 35 C1 35.99 1 36.98 1 38 C0.01 37.67 -0.98 37.34 -2 37 C-7.37948913 24.42651153 -4.28114213 12.34561916 0 0 Z " fill="#202327" transform="translate(30,89)"/>
<path d="M0 0 C0.33 0.66 0.66 1.32 1 2 C0.67 2.66 0.34 3.32 0 4 C-0.48445696 9.5395843 -0.48445696 9.5395843 1.5 14.5 C1.995 14.995 2.49 15.49 3 16 C4.32 14.02 5.64 12.04 7 10 C7.75 11.6875 7.75 11.6875 8 14 C7.38125 14.763125 6.7625 15.52625 6.125 16.3125 C3.54739327 19.5724144 3.39156753 21.92769771 3 26 C2 27 2 27 0.15234375 27.09765625 C-1.8984375 27.06510417 -3.94921875 27.03255208 -6 27 C-6.33 26.34 -6.66 25.68 -7 25 C-4.36 25 -1.72 25 1 25 C0.58007326 20.08427271 0.58007326 20.08427271 -1.5625 15.75 C-3.79729946 11.47473146 -3.77714485 6.73144068 -3 2 C-2.01 1.34 -1.02 0.68 0 0 Z " fill="#16181C" transform="translate(115,97)"/>
<path d="M0 0 C0.94875 0.0721875 1.8975 0.144375 2.875 0.21875 C12.95468292 0.92324397 22.95830112 1.07312155 33.0625 0.875 C34.04992187 0.86339844 35.03734375 0.85179688 36.0546875 0.83984375 C36.93624512 0.82300537 37.81780273 0.80616699 38.72607422 0.78881836 C41 1 41 1 44 3 C37.73504689 4.1651267 31.66718289 4.18390775 25.3125 4.1875 C23.63124023 4.20586914 23.63124023 4.20586914 21.91601562 4.22460938 C14.88555518 4.23685046 7.77453185 4.08378393 1 2 C0.67 1.34 0.34 0.68 0 0 Z " fill="#D8D8D9" transform="translate(47,73)"/>
<path d="M0 0 C1.96875 1.19140625 1.96875 1.19140625 4 3 C4.76529894 6.37069167 4.57845613 9.60157026 4 13 C2 15.625 2 15.625 0 17 C-3.37318554 12.50241928 -3.51804578 9.43948065 -3 4 C-1.5 1.5 -1.5 1.5 0 0 Z " fill="#5C4B3E" transform="translate(117,97)"/>
<path d="M0 0 C0 0.66 0 1.32 0 2 C2.97 2 5.94 2 9 2 C9.33 1.34 9.66 0.68 10 0 C10.99 0.99 11.98 1.98 13 3 C4.91191011 4.60614551 -2.7574683 5.26305952 -11 5 C-10.67 4.34 -10.34 3.68 -10 3 C-12.64 2.67 -15.28 2.34 -18 2 C-18 1.67 -18 1.34 -18 1 C-11.95170514 0.10395632 -6.1105424 -0.11269443 0 0 Z " fill="#13171D" transform="translate(87,77)"/>
<path d="M0 0 C8.55148972 1.29022477 15.57717024 7.50946283 21 14 C25 19.84615385 25 19.84615385 25 23 C24.401875 22.690625 23.80375 22.38125 23.1875 22.0625 C20.91043228 20.89790296 20.91043228 20.89790296 18 20 C17.29755439 18.32751046 16.59889439 16.65325878 15.92578125 14.96875 C12.59275065 7.88078618 6.85024236 4.30333909 0 1 C0 0.67 0 0.34 0 0 Z " fill="#6D635C" transform="translate(86,10)"/>
<path d="M0 0 C1.670625 0.061875 1.670625 0.061875 3.375 0.125 C2.941875 1.1459375 2.941875 1.1459375 2.5 2.1875 C1.24902645 5.45393093 0.30052045 8.75346123 -0.625 12.125 C-3.78615776 10.75516497 -4.6177092 10.1359362 -6.625 7.125 C-6.1384012 2.1373623 -5.31615955 0.18331585 0 0 Z " fill="#AE5C7D" transform="translate(15.625,27.875)"/>
<path d="M0 0 C0.33 0 0.66 0 1 0 C1.25 5.625 1.25 5.625 -1 9 C-1.74030281 15.21085218 -1.49946602 19.75080097 2 25 C2.1875 28.8125 2.1875 28.8125 2 32 C1.67 32 1.34 32 1 32 C0.731875 30.948125 0.46375 29.89625 0.1875 28.8125 C-0.87694412 25.39507415 -2.13260169 23.00407554 -4 20 C-5.63653771 15.53671534 -5.87288339 10.91668101 -3.8828125 6.546875 C-2.64506512 4.32312547 -1.36399385 2.14829031 0 0 Z " fill="#A83322" transform="translate(114,90)"/>
<path d="M0 0 C-2.97756075 2.97756075 -6.29547727 2.73205708 -10.37109375 3.2421875 C-13.09690761 3.7984454 -13.09690761 3.7984454 -14.8515625 5.8515625 C-16.63365045 9.18540051 -15.95632401 11.4297237 -15 15 C-12.85855634 17.64111385 -10.83931633 19.10712245 -8 21 C-7.70703125 23.1640625 -7.70703125 23.1640625 -7.8125 25.625 C-7.83957031 26.44226563 -7.86664063 27.25953125 -7.89453125 28.1015625 C-7.92933594 28.72804688 -7.96414063 29.35453125 -8 30 C-8.33 30 -8.66 30 -9 30 C-9 27.36 -9 24.72 -9 22 C-9.7425 21.773125 -10.485 21.54625 -11.25 21.3125 C-14.73058231 19.65131299 -16.07222253 18.35576078 -18 15 C-18.74848647 10.76613712 -18.77153821 7.30826044 -16.5625 3.5625 C-11.61404226 0.54514772 -5.75820062 -0.37149681 0 0 Z " fill="#A1A1A4" transform="translate(22,22)"/>
<path d="M0 0 C2 3 2 3 3.375 5.75 C8.07329299 12.832765 18.20625007 16.45204329 26 19 C26 19.33 26 19.66 26 20 C17.29079724 19.82923132 9.08985319 15.90131386 2.796875 9.8984375 C-0.07276119 6.31809701 -0.07276119 6.31809701 -1 4 C-0.6328125 1.76171875 -0.6328125 1.76171875 0 0 Z " fill="#E8E6E8" transform="translate(20,53)"/>
<path d="M0 0 C0.33 0.99 0.66 1.98 1 3 C0.34 3.66 -0.32 4.32 -1 5 C-1.63682422 6.93434605 -1.63682422 6.93434605 -2.0625 9.0625 C-2.90277778 12.90277778 -2.90277778 12.90277778 -4 14 C-5.55753051 14.22670908 -7.12377359 14.39435092 -8.69140625 14.53515625 C-9.63564453 14.62216797 -10.57988281 14.70917969 -11.55273438 14.79882812 C-13.04256836 14.9293457 -13.04256836 14.9293457 -14.5625 15.0625 C-15.55958984 15.15337891 -16.55667969 15.24425781 -17.58398438 15.33789062 C-20.05565702 15.56258814 -22.52763256 15.78310351 -25 16 C-24.67 15.01 -24.34 14.02 -24 13 C-22.71222656 12.93941406 -21.42445312 12.87882812 -20.09765625 12.81640625 C-18.41925841 12.73201753 -16.74087364 12.6473687 -15.0625 12.5625 C-13.78729492 12.50352539 -13.78729492 12.50352539 -12.48632812 12.44335938 C-11.67744141 12.40146484 -10.86855469 12.35957031 -10.03515625 12.31640625 C-9.2862915 12.27974854 -8.53742676 12.24309082 -7.76586914 12.20532227 C-5.97538674 12.18228937 -5.97538674 12.18228937 -5 11 C-4.896875 9.906875 -4.79375 8.81375 -4.6875 7.6875 C-3.9404473 3.68058098 -3.10324707 2.50261861 0 0 Z " fill="#8E8E91" transform="translate(122,112)"/>
<path d="M0 0 C0.33 0 0.66 0 1 0 C1 3.96 1 7.92 1 12 C-6.71484375 10.6328125 -6.71484375 10.6328125 -9 10 C-9.33 9.34 -9.66 8.68 -10 8 C-9.44570312 7.75765625 -8.89140625 7.5153125 -8.3203125 7.265625 C-7.59585938 6.93046875 -6.87140625 6.5953125 -6.125 6.25 C-5.40570313 5.92515625 -4.68640625 5.6003125 -3.9453125 5.265625 C-1.6629326 3.78070314 -0.99624102 2.49584592 0 0 Z " fill="#E88F70" transform="translate(85,111)"/>
<path d="M0 0 C0.66 0 1.32 0 2 0 C1.4740625 0.804375 1.4740625 0.804375 0.9375 1.625 C-0.33735758 4.85463921 0.03442173 6.68944593 1 10 C2.93716038 12.35631825 2.93716038 12.35631825 5 14 C4.34 14.66 3.68 15.32 3 16 C-1.01628463 13.93758357 -3.125395 12.14386369 -5 8 C-5.1875 5.1875 -5.1875 5.1875 -5 3 C-4.34 3.66 -3.68 4.32 -3 5 C-2.54625 4.175 -2.0925 3.35 -1.625 2.5 C-1.08875 1.675 -0.5525 0.85 0 0 Z " fill="#28272E" transform="translate(10,27)"/>
<path d="M0 0 C2.64 0 5.28 0 8 0 C7.67 5.28 7.34 10.56 7 16 C6.67 16 6.34 16 6 16 C6 12.7 6 9.4 6 6 C3.36 5.67 0.72 5.34 -2 5 C-1.34 3.35 -0.68 1.7 0 0 Z " fill="#ACAAAB" transform="translate(60,80)"/>
<path d="M0 0 C1.93922422 0.45098238 3.87633594 0.91105559 5.8125 1.375 C6.89144531 1.63023438 7.97039062 1.88546875 9.08203125 2.1484375 C12 3 12 3 15 5 C13.08496326 5.22281874 11.16783494 5.42771076 9.25 5.625 C8.18265625 5.74101563 7.1153125 5.85703125 6.015625 5.9765625 C2.96207601 6.00029475 1.53837579 5.61420985 -1 4 C-0.67 2.68 -0.34 1.36 0 0 Z " fill="#EFB393" transform="translate(99,81)"/>
<path d="M0 0 C3.63 0 7.26 0 11 0 C11 1.32 11 2.64 11 4 C11.99 4.66 12.98 5.32 14 6 C11.69 6.33 9.38 6.66 7 7 C7 6.01 7 5.02 7 4 C4.69 3.34 2.38 2.68 0 2 C0 1.34 0 0.68 0 0 Z " fill="#C89980" transform="translate(88,81)"/>
<path d="M0 0 C1.45823212 -0.0270043 2.91660675 -0.04639787 4.375 -0.0625 C5.18710937 -0.07410156 5.99921875 -0.08570313 6.8359375 -0.09765625 C9 0 9 0 11 1 C11 2.65 11 4.3 11 6 C7.0507432 5.44894091 3.65079826 4.61064629 0 3 C0 2.01 0 1.02 0 0 Z " fill="#DD86A9" transform="translate(20,45)"/>
<path d="M0 0 C2.125 0.9375 2.125 0.9375 4 2 C1.48283718 2.84610515 -1.03779273 3.67696767 -3.5625 4.5 C-4.61920898 4.85771484 -4.61920898 4.85771484 -5.69726562 5.22265625 C-10.32122977 6.71425759 -14.14302111 7.25529455 -19 7 C-16.26000754 4.26000754 -13.15300092 3.83538714 -9.5 2.9375 C-4.63026393 1.81196134 -4.63026393 1.81196134 0 0 Z " fill="#E5E4E5" transform="translate(107,68)"/>
<path d="M0 0 C0.33 0 0.66 0 1 0 C1.47633136 6.19230769 1.47633136 6.19230769 -0.4375 9.4375 C-4.21006824 11.73784649 -7.69066159 11.33148757 -12 11 C-12.33 10.34 -12.66 9.68 -13 9 C-12.38511719 8.91363281 -11.77023438 8.82726562 -11.13671875 8.73828125 C-5.85482003 7.93756317 -5.85482003 7.93756317 -2 4.5 C-1.67 3.675 -1.34 2.85 -1 2 C-0.67 1.34 -0.34 0.68 0 0 Z " fill="#16181D" transform="translate(82,105)"/>
<path d="M0 0 C0.66 0.33 1.32 0.66 2 1 C1 4 1 4 -1.21484375 5.16796875 C-2.11332031 5.50441406 -3.01179688 5.84085937 -3.9375 6.1875 C-4.83339844 6.53167969 -5.72929688 6.87585938 -6.65234375 7.23046875 C-9 8 -9 8 -11 8 C-11 7.34 -11 6.68 -11 6 C-11.66 5.67 -12.32 5.34 -13 5 C-12.14535156 4.72285156 -11.29070312 4.44570312 -10.41015625 4.16015625 C-9.30542969 3.79792969 -8.20070313 3.43570313 -7.0625 3.0625 C-5.96035156 2.70285156 -4.85820313 2.34320313 -3.72265625 1.97265625 C-1.11876525 1.26143332 -1.11876525 1.26143332 0 0 Z " fill="#272A2E" transform="translate(112,68)"/>
<path d="M0 0 C0.33 0 0.66 0 1 0 C1.25 5.625 1.25 5.625 -1 9 C-1.45601261 11.50896686 -1.45601261 11.50896686 -1.625 14.1875 C-1.69976562 15.08855469 -1.77453125 15.98960938 -1.8515625 16.91796875 C-1.90054688 17.60503906 -1.94953125 18.29210937 -2 19 C-2.33 19 -2.66 19 -3 19 C-4.7610915 7.34233993 -4.7610915 7.34233993 -2.0625 2.75 C-1.381875 1.8425 -0.70125 0.935 0 0 Z " fill="#B3311E" transform="translate(114,90)"/>
<path d="M0 0 C0.99 0 1.98 0 3 0 C3.125 2.875 3.125 2.875 3 6 C2.34 6.66 1.68 7.32 1 8 C0.01 8 -0.98 8 -2 8 C-2.125 5.125 -2.125 5.125 -2 2 C-1.34 1.34 -0.68 0.68 0 0 Z " fill="#F5F5F6" transform="translate(36,38)"/>
<path d="M0 0 C4.0284349 -0.18311068 6.48375245 0.05841983 10 2 C8.54293274 2.50367757 7.08429904 3.00282556 5.625 3.5 C4.40683594 3.91765625 4.40683594 3.91765625 3.1640625 4.34375 C1 5 1 5 -1 5 C-0.67 3.35 -0.34 1.7 0 0 Z " fill="#514841" transform="translate(90,126)"/>
<path d="M0 0 C0.33 0.99 0.66 1.98 1 3 C-2.70907482 5.47271655 -3.78598177 5.01904581 -8.0625 4.25 C-9.12597656 4.06953125 -10.18945312 3.8890625 -11.28515625 3.703125 C-14 3 -14 3 -16 1 C-14.92878906 1.01160156 -13.85757813 1.02320312 -12.75390625 1.03515625 C-11.35677257 1.04453299 -9.95963701 1.05363331 -8.5625 1.0625 C-7.85544922 1.07087891 -7.14839844 1.07925781 -6.41992188 1.08789062 C-4.61306441 1.09653588 -2.80612397 1.05220011 -1 1 C-0.67 0.67 -0.34 0.34 0 0 Z " fill="#363434" transform="translate(80,107)"/>
<path d="M0 0 C0.99 0 1.98 0 3 0 C3.2475 0.763125 3.495 1.52625 3.75 2.3125 C5.71801166 6.54372507 8.88324011 8.08864719 13 10 C10.8125 10.75 10.8125 10.75 8 11 C4.18673343 8.63940641 1.99649247 5.99298495 0 2 C0 1.34 0 0.68 0 0 Z " fill="#4F5154" transform="translate(54,53)"/>
<path d="M0 0 C0 0.66 0 1.32 0 2 C-3.4352048 4.29013653 -4.985331 4.17842973 -9 4 C-8.625 2.0625 -8.625 2.0625 -8 0 C-5.13822943 -1.43088528 -3.06624227 -0.59991697 0 0 Z " fill="#424448" transform="translate(77,50)"/>
<path d="M0 0 C0.66 0 1.32 0 2 0 C2.433125 0.763125 2.86625 1.52625 3.3125 2.3125 C4.78313026 5.19530865 4.78313026 5.19530865 7.6875 6.25 C10 8 10 8 10.3203125 10.18359375 C10.31316242 12.47519471 10.21518087 14.71908276 10 17 C9.67 17 9.34 17 9 17 C9 14.36 9 11.72 9 9 C8.2575 8.773125 7.515 8.54625 6.75 8.3125 C3.4574253 6.7410439 2.02502891 5.00004284 0 2 C0 1.34 0 0.68 0 0 Z " fill="#98989C" transform="translate(4,35)"/>
<path d="M0 0 C1.32 0 2.64 0 4 0 C4.125 2.375 4.125 2.375 4 5 C3.34 5.66 2.68 6.32 2 7 C1.01 7 0.02 7 -1 7 C-1.04254356 5.00045254 -1.04080783 2.99958364 -1 1 C-0.67 0.67 -0.34 0.34 0 0 Z " fill="#EFF0F0" transform="translate(100,36)"/>
<path d="M0 0 C4.6875 1.82291667 4.6875 1.82291667 6.875 3.0625 C9.84146927 4.37123644 12.79734198 4.63046254 16 5 C15.01 5.99 14.02 6.98 13 8 C7.32744679 6.75203829 4.21832726 5.0125552 0 1 C0 0.67 0 0.34 0 0 Z " fill="#373739" transform="translate(52,108)"/>
<path d="M0 0 C3.27742098 3.10026309 5.93104837 5.97098894 8 10 C8 10.66 8 11.32 8 12 C4.5659298 10.61482883 3.29977978 9.34555636 1.75 6 C1.41484375 5.29875 1.0796875 4.5975 0.734375 3.875 C0 2 0 2 0 0 Z " fill="#645448" transform="translate(103,21)"/>
<path d="M0 0 C-1.82945522 2.21460369 -2.67038832 2.94372483 -5.5625 3.4375 C-8.17317795 3.73987379 -8.17317795 3.73987379 -9.3125 6.0625 C-9.539375 6.701875 -9.76625 7.34125 -10 8 C-10.33 8 -10.66 8 -11 8 C-11.21620175 5.3335118 -11.30894168 3.55995679 -10 1.1875 C-6.76011038 -0.73618446 -3.7174181 -0.18282384 0 0 Z " fill="#1B1D23" transform="translate(17,25)"/>
<path d="M0 0 C0 0.99 0 1.98 0 3 C-1.64453125 4.60546875 -1.64453125 4.60546875 -3.8125 6.1875 C-4.52019531 6.71730469 -5.22789063 7.24710938 -5.95703125 7.79296875 C-8 9 -8 9 -11 9 C-9.87895467 7.68412059 -8.75303035 6.37239647 -7.625 5.0625 C-6.99851562 4.33160156 -6.37203125 3.60070312 -5.7265625 2.84765625 C-3.78013965 0.76471958 -2.86558444 0 0 0 Z " fill="#171B20" transform="translate(36,13)"/>
<path d="M0 0 C1.20076172 0.31324219 1.20076172 0.31324219 2.42578125 0.6328125 C3.23402344 0.83648437 4.04226562 1.04015625 4.875 1.25 C5.48988281 1.41757813 6.10476562 1.58515625 6.73828125 1.7578125 C6.73828125 2.7478125 6.73828125 3.7378125 6.73828125 4.7578125 C0.79828125 3.2728125 0.79828125 3.2728125 -5.26171875 1.7578125 C-2.26171875 -0.2421875 -2.26171875 -0.2421875 0 0 Z " fill="#302D2E" transform="translate(102.26171875,79.2421875)"/>
<path d="M0 0 C-1.5830577 4.2742558 -4.50568404 6.26531794 -8 9 C-8.66 8.34 -9.32 7.68 -10 7 C-8.71372289 5.82739389 -7.42080217 4.6620717 -6.125 3.5 C-5.04605469 2.52546875 -5.04605469 2.52546875 -3.9453125 1.53125 C-2 0 -2 0 0 0 Z " fill="#939396" transform="translate(31,14)"/>
<path d="M0 0 C0.33 0.66 0.66 1.32 1 2 C-3.37792329 7.71562208 -3.37792329 7.71562208 -6.1875 9 C-6.785625 9 -7.38375 9 -8 9 C-8.66 8.34 -9.32 7.68 -10 7 C-9.16855469 6.61908203 -9.16855469 6.61908203 -8.3203125 6.23046875 C-7.59585938 5.88628906 -6.87140625 5.54210938 -6.125 5.1875 C-5.40570313 4.85105469 -4.68640625 4.51460937 -3.9453125 4.16796875 C-1.69457194 3.00532903 -1.69457194 3.00532903 0 0 Z " fill="#3E4043" transform="translate(92,55)"/>
<path d="M0 0 C0.33 0.99 0.66 1.98 1 3 C-3.625 7 -3.625 7 -7 7 C-7 6.34 -7 5.68 -7 5 C-5.46875 3.7109375 -5.46875 3.7109375 -3.5 2.375 C-2.8503125 1.92898437 -2.200625 1.48296875 -1.53125 1.0234375 C-1.0259375 0.68570313 -0.520625 0.34796875 0 0 Z " fill="#F1F1F2" transform="translate(116,62)"/>
<path d="M0 0 C0 0.66 0 1.32 0 2 C-2.31 2.33 -4.62 2.66 -7 3 C-7 2.01 -7 1.02 -7 0 C-4.3333581 -1.33332095 -2.83319697 -0.67102033 0 0 Z " fill="#DD88AA" transform="translate(116,46)"/>
<path d="M0 0 C3.3 0.99 6.6 1.98 10 3 C9.67 3.66 9.34 4.32 9 5 C4.545 4.01 4.545 4.01 0 3 C0 2.01 0 1.02 0 0 Z " fill="#818183" transform="translate(99,76)"/>
<path d="M0 0 C0.66 0 1.32 0 2 0 C2 3.3 2 6.6 2 10 C1.01 10 0.02 10 -1 10 C-0.67 6.7 -0.34 3.4 0 0 Z " fill="#171A20" transform="translate(120,51)"/>
<path d="M0 0 C0.99 0.33 1.98 0.66 3 1 C3.33 2.65 3.66 4.3 4 6 C3.34 6 2.68 6 2 6 C2 8.31 2 10.62 2 13 C1.67 13 1.34 13 1 13 C0.67 8.71 0.34 4.42 0 0 Z " fill="#373A3E" transform="translate(118,45)"/>
<path d="M0 0 C0 0.99 0 1.98 0 3 C-1.32 3.33 -2.64 3.66 -4 4 C-4.33 5.65 -4.66 7.3 -5 9 C-5.66 8.01 -6.32 7.02 -7 6 C-6.25 3.375 -6.25 3.375 -5 1 C-3 0 -3 0 0 0 Z " fill="#3B3D40" transform="translate(104,33)"/>
<path d="M0 0 C-1.1875 1.5625 -1.1875 1.5625 -3 3 C-5.6875 2.6875 -5.6875 2.6875 -8 2 C-8 1.34 -8 0.68 -8 0 C-2.25 -1.125 -2.25 -1.125 0 0 Z " fill="#B33121" transform="translate(78,117)"/>
<path d="M0 0 C0 0.66 0 1.32 0 2 C-1.98 2.33 -3.96 2.66 -6 3 C-6.33 2.01 -6.66 1.02 -7 0 C-3.86650268 -1.04449911 -3.01031744 -0.93423645 0 0 Z " fill="#27292B" transform="translate(55,6)"/>
<path d="M0 0 C4.455 0.99 4.455 0.99 9 2 C6 4 6 4 2 4 C2 3.01 2 2.02 2 1 C1.34 0.67 0.68 0.34 0 0 Z " fill="#A4816D" transform="translate(93,84)"/>
<path d="M0 0 C2.97 0 5.94 0 9 0 C9 0.99 9 1.98 9 3 C8.01 3.33 7.02 3.66 6 4 C6 3.34 6 2.68 6 2 C3.03 1.505 3.03 1.505 0 1 C0 0.67 0 0.34 0 0 Z " fill="#242529" transform="translate(69,79)"/>
<path d="M0 0 C0.66 0 1.32 0 2 0 C1.67 0.53625 1.34 1.0725 1 1.625 C-0.22699204 4.5391061 -0.14233286 6.86867708 0 10 C-0.66 9.67 -1.32 9.34 -2 9 C-2.125 5.625 -2.125 5.625 -2 2 C-1.34 1.34 -0.68 0.68 0 0 Z " fill="#483A3B" transform="translate(10,27)"/>
</svg>
