<svg xmlns="http://www.w3.org/2000/svg" xmlns:v="https://svgstorm.com"
viewBox = "0 0 300 300"
width="300"
height="300">
<g fill="None" fill-opacity="0.0" stroke="#000000" stroke-opacity="0.00" stroke-width="0.3"><path d="
M 0.00 300.00 
L 300.00 300.00
L 300.00 0.00
L 0.00 0.00
L 0.00 300.00
M 209.00 276.00 
C 204.86 279.30 201.16 280.70 196.00 282.00
C 193.62 282.60 190.19 282.60 188.00 283.00
C 158.34 288.39 127.54 288.60 97.00 285.00
C 94.21 284.67 91.59 284.41 89.00 284.00
C 84.08 283.22 79.69 281.98 74.93 281.07 C 70.16 280.16 66.80 276.47 63.00 275.00
C 61.53 274.43 60.30 274.68 59.00 274.00
C 49.29 268.93 50.00 251.21 50.00 241.00 C 50.00 230.79 55.94 218.47 58.98 207.98 C 62.01 197.48 66.20 182.98 65.00 171.00
C 58.16 169.86 52.64 164.85 47.00 161.00
C 44.23 158.81 42.93 156.35 41.00 154.00
C 32.96 147.13 27.59 134.24 28.07 122.93 C 28.55 111.61 12.85 107.64 11.00 96.00
C 10.64 93.74 10.64 90.26 11.00 88.00
C 12.77 76.85 24.89 73.32 35.00 74.00 C 45.11 74.68 52.11 65.65 59.25 59.25 C 66.38 52.84 73.76 49.10 82.69 44.69 C 91.63 40.29 101.69 37.26 112.07 35.07 C 122.46 32.89 138.45 34.29 149.07 34.93 C 159.70 35.57 169.92 38.80 179.23 42.77 C 188.54 46.74 195.88 51.12 203.75 57.25 C 211.62 63.38 216.48 69.93 221.92 78.08 C 227.36 86.23 229.96 94.73 234.31 103.69 C 238.65 112.66 243.27 122.63 244.00 133.00 C 244.73 143.37 242.32 154.59 234.75 161.75 C 227.18 168.91 219.61 173.24 209.98 175.98 C 200.34 178.71 185.51 180.43 191.93 191.07 C 198.34 201.72 199.71 206.37 204.97 216.03 C 210.23 225.68 213.90 234.07 215.33 244.67 C 216.76 255.27 217.98 268.84 209.00 276.00 Z"/>
</g>
<g fill="None" fill-opacity="0.0" stroke="#94999E" stroke-opacity="0.85" stroke-width="0.3"><path d="
M 11.00 88.00 
C 10.94 88.95 10.94 95.12 11.00 96.00
C 12.85 107.64 28.55 111.61 28.07 122.93 C 27.59 134.24 32.96 147.13 41.00 154.00
C 43.57 156.19 45.09 158.85 47.00 161.00
C 52.64 164.85 58.16 169.86 65.00 171.00
C 66.20 182.98 62.01 197.48 58.98 207.98 C 55.94 218.47 50.00 230.79 50.00 241.00 C 50.00 251.21 49.29 268.93 59.00 274.00
C 53.08 268.90 53.82 257.66 52.02 249.98 C 50.23 242.29 53.96 229.74 55.98 221.98 C 58.00 214.21 62.23 207.24 63.78 198.78 C 65.33 190.31 67.94 179.30 67.00 170.00
C 42.49 162.77 27.38 137.24 30.00 112.00
C 11.80 112.28 6.12 76.72 26.01 77.01 C 45.90 77.30 54.31 65.54 68.75 54.75 C 83.18 43.96 98.46 40.23 116.00 37.00 C 133.54 33.77 158.32 36.47 174.22 42.78 C 190.12 49.08 201.72 56.24 212.92 69.08 C 224.12 81.93 228.47 96.31 235.78 111.22 C 243.09 126.14 246.26 148.27 232.75 160.75 C 219.24 173.23 203.30 176.80 186.00 180.00
C 195.05 210.57 226.91 241.04 209.00 275.00
C 208.77 275.35 209.00 276.00 209.00 276.00
C 217.98 268.84 216.76 255.27 215.33 244.67 C 213.90 234.07 210.23 225.68 204.97 216.03 C 199.71 206.37 198.34 201.72 191.93 191.07 C 185.51 180.43 200.34 178.71 209.98 175.98 C 219.61 173.24 227.18 168.91 234.75 161.75 C 242.32 154.59 244.73 143.37 244.00 133.00 C 243.27 122.63 238.65 112.66 234.31 103.69 C 229.96 94.73 227.36 86.23 221.92 78.08 C 216.48 69.93 211.62 63.38 203.75 57.25 C 195.88 51.12 188.54 46.74 179.23 42.77 C 169.92 38.80 159.70 35.57 149.07 34.93 C 138.45 34.29 122.46 32.89 112.07 35.07 C 101.69 37.26 91.63 40.29 82.69 44.69 C 73.76 49.10 66.38 52.84 59.25 59.25 C 52.11 65.65 45.11 74.68 35.00 74.00 C 24.89 73.32 12.77 76.85 11.00 88.00 Z"/>
</g>
<g fill="None" fill-opacity="0.0" stroke="#11161A" stroke-opacity="1.00" stroke-width="0.3"><path d="
M 59.00 274.00 
C 60.30 274.68 61.53 274.43 63.00 275.00
C 61.13 272.46 59.70 268.04 59.00 265.00
C 57.18 257.06 56.91 248.66 58.00 241.00
C 58.75 221.45 73.32 203.82 72.00 184.00
C 71.97 183.50 72.00 183.00 72.00 183.00
C 73.10 179.89 73.14 176.44 73.00 173.00
C 89.39 178.24 106.82 182.79 124.00 184.00
C 127.26 184.32 130.72 184.00 134.00 184.00
C 141.00 184.00 148.00 184.00 155.00 184.00
C 157.96 184.00 161.06 184.28 164.00 184.00
C 169.54 183.48 175.17 181.60 181.00 182.00
C 180.78 187.85 183.53 192.94 186.00 198.00
C 195.21 216.02 205.52 231.49 208.00 252.00
C 208.97 260.06 208.70 268.86 206.00 277.00
C 207.25 276.70 207.71 275.17 209.00 275.00
C 226.91 241.04 195.05 210.57 186.00 180.00
C 203.30 176.80 219.24 173.23 232.75 160.75 C 246.26 148.27 243.09 126.14 235.78 111.22 C 228.47 96.31 224.12 81.93 212.92 69.08 C 201.72 56.24 190.12 49.08 174.22 42.78 C 158.32 36.47 133.54 33.77 116.00 37.00 C 98.46 40.23 83.18 43.96 68.75 54.75 C 54.31 65.54 45.90 77.30 26.01 77.01 C 6.12 76.72 11.80 112.28 30.00 112.00
C 27.38 137.24 42.49 162.77 67.00 170.00
C 67.94 179.30 65.33 190.31 63.78 198.78 C 62.23 207.24 58.00 214.21 55.98 221.98 C 53.96 229.74 50.23 242.29 52.02 249.98 C 53.82 257.66 53.08 268.90 59.00 274.00
M 153.00 42.00 
C 162.06 43.62 170.75 45.78 179.00 50.00
C 200.85 61.17 212.91 76.41 223.00 98.00
C 231.12 115.35 247.72 146.04 225.75 160.75 C 203.79 175.46 181.10 175.97 156.00 179.00 C 130.90 182.03 100.82 175.05 78.78 168.22 C 56.74 161.40 35.28 146.24 37.00 121.00
C 34.95 108.37 35.17 94.99 44.00 84.00
C 43.06 83.43 42.18 82.85 41.00 83.00
C 42.03 84.33 41.47 84.07 41.00 85.00
C 39.09 88.76 35.75 91.98 34.00 96.00
C 32.77 100.46 32.17 105.70 33.00 110.00
C 27.98 109.01 24.43 105.37 22.00 101.00
C 17.22 94.57 15.70 83.23 25.70 80.70 C 35.69 78.16 44.27 80.81 53.00 75.00
C 56.22 72.86 59.17 69.52 62.00 67.00
C 84.08 44.04 122.76 36.58 153.00 42.00 Z"/>
</g>
<g fill="None" fill-opacity="0.0" stroke="#485660" stroke-opacity="1.00" stroke-width="0.3"><path d="
M 62.00 67.00 
C 58.98 70.14 55.64 73.77 53.00 75.00
C 44.27 80.81 35.69 78.16 25.70 80.70 C 15.70 83.23 17.22 94.57 22.00 101.00
C 19.53 96.52 18.86 87.32 22.77 83.77 C 26.68 80.22 37.88 78.97 41.00 83.00
C 42.18 82.85 43.06 83.43 44.00 84.00
C 35.17 94.99 34.95 108.37 37.00 121.00
C 38.69 96.13 58.96 76.13 84.22 81.78 C 109.48 87.43 117.43 107.52 127.00 128.00
C 126.27 113.83 149.56 113.80 158.22 116.78 C 166.88 119.76 167.25 121.49 169.00 128.00
C 169.06 128.05 171.06 130.14 171.00 130.00
C 175.12 114.33 181.21 75.00 208.00 86.00
C 203.41 80.18 202.36 70.68 195.75 65.25 C 189.14 59.82 184.57 54.58 176.77 51.23 C 168.97 47.88 160.83 44.48 153.00 42.00
C 122.76 36.58 84.08 44.04 62.00 67.00 Z"/>
</g>
<g fill="None" fill-opacity="0.0" stroke="#63717B" stroke-opacity="1.00" stroke-width="0.3"><path d="
M 208.00 86.00 
C 208.85 86.35 211.08 87.49 212.00 88.00
C 207.15 81.21 206.60 71.97 198.75 66.25 C 190.91 60.53 186.68 54.90 179.00 50.00
C 170.75 45.78 162.06 43.62 153.00 42.00
C 160.83 44.48 168.97 47.88 176.77 51.23 C 184.57 54.58 189.14 59.82 195.75 65.25 C 202.36 70.68 203.41 80.18 208.00 86.00 Z"/>
</g>
<g fill="None" fill-opacity="0.0" stroke="#45525A" stroke-opacity="1.00" stroke-width="0.3"><path d="
M 212.00 88.00 
C 215.83 90.12 220.47 94.49 223.00 98.00
C 212.91 76.41 200.85 61.17 179.00 50.00
C 186.68 54.90 190.91 60.53 198.75 66.25 C 206.60 71.97 207.15 81.21 212.00 88.00 Z"/>
</g>
<g fill="None" fill-opacity="0.0" stroke="#727B83" stroke-opacity="1.00" stroke-width="0.3"><path d="
M 53.00 75.00 
C 55.64 73.77 58.98 70.14 62.00 67.00
C 59.17 69.52 56.22 72.86 53.00 75.00 Z"/>
</g>
<g fill="None" fill-opacity="0.0" stroke="#331B2B" stroke-opacity="1.00" stroke-width="0.3"><path d="
M 22.00 101.00 
C 24.43 105.37 27.98 109.01 33.00 110.00
C 32.17 105.70 32.77 100.46 34.00 96.00
C 32.60 99.20 31.39 103.18 31.00 107.00
C 23.91 105.48 19.00 96.70 21.33 89.33 C 23.66 81.96 35.77 80.88 41.00 85.00
C 41.47 84.07 42.03 84.33 41.00 83.00
C 37.88 78.97 26.68 80.22 22.77 83.77 C 18.86 87.32 19.53 96.52 22.00 101.00 Z"/>
</g>
<g fill="None" fill-opacity="0.0" stroke="#F7F8F8" stroke-opacity="1.00" stroke-width="0.3"><path d="
M 37.00 121.00 
C 35.28 146.24 56.74 161.40 78.78 168.22 C 100.82 175.05 130.90 182.03 156.00 179.00 C 181.10 175.97 203.79 175.46 225.75 160.75 C 247.72 146.04 231.12 115.35 223.00 98.00
C 220.47 94.49 215.83 90.12 212.00 88.00
C 211.08 87.49 208.85 86.35 208.00 86.00
C 181.21 75.00 175.12 114.33 171.00 130.00
C 167.74 142.39 153.72 143.21 143.00 140.00
C 136.37 138.02 130.11 134.64 127.00 128.00
C 117.43 107.52 109.48 87.43 84.22 81.78 C 58.96 76.13 38.69 96.13 37.00 121.00
M 216.00 119.00 
C 221.82 111.84 231.42 117.30 232.00 125.00
C 232.04 125.50 232.00 126.00 232.00 126.00
C 234.55 129.45 233.00 136.56 231.00 140.00
C 223.88 162.83 201.28 168.75 179.32 172.32 C 157.36 175.89 121.80 176.84 100.93 171.07 C 80.05 165.31 57.45 160.90 46.00 141.00
C 43.79 137.16 42.26 133.47 42.00 129.00
C 41.41 125.72 40.32 122.33 42.00 119.00
C 44.60 108.36 60.73 121.10 64.00 117.00
C 64.28 109.68 66.37 100.88 74.08 98.08 C 81.79 95.27 89.56 99.12 92.92 107.08 C 96.29 115.03 97.11 121.14 93.08 130.08 C 89.04 139.01 79.71 136.29 72.00 137.00
C 64.83 137.66 57.18 141.22 49.00 141.00
C 76.15 149.12 101.96 155.26 131.00 155.00
C 122.45 152.68 114.70 146.19 111.00 138.00
C 109.50 136.26 105.98 136.55 107.01 132.99 C 108.04 129.44 109.47 129.46 113.22 130.78 C 116.97 132.10 112.96 136.24 113.00 137.00
C 119.00 150.35 135.98 151.79 149.02 152.98 C 162.07 154.16 176.94 145.60 185.00 136.00
C 183.41 144.74 174.79 150.97 167.00 154.00
C 188.53 151.25 209.01 148.25 230.00 140.00
C 229.75 139.75 230.00 139.00 230.00 139.00
C 219.75 138.07 213.68 136.79 205.00 133.00
C 198.37 130.11 192.87 128.42 192.01 119.99 C 191.15 111.56 190.35 105.61 194.77 98.77 C 199.20 91.93 205.71 91.65 210.75 97.25 C 215.79 102.85 217.02 111.35 216.00 119.00 Z"/>
</g>
<g fill="None" fill-opacity="0.0" stroke="#B15A7B" stroke-opacity="1.00" stroke-width="0.3"><path d="
M 34.00 96.00 
C 35.75 91.98 39.09 88.76 41.00 85.00
C 35.77 80.88 23.66 81.96 21.33 89.33 C 19.00 96.70 23.91 105.48 31.00 107.00
C 31.39 103.18 32.60 99.20 34.00 96.00 Z"/>
</g>
<g fill="None" fill-opacity="0.0" stroke="#A9ACB1" stroke-opacity="0.70" stroke-width="0.3"><path d="
M 11.00 96.00 
C 10.94 95.12 10.94 88.95 11.00 88.00
C 10.64 90.26 10.64 93.74 11.00 96.00 Z"/>
</g>
<g fill="None" fill-opacity="0.0" stroke="#15161B" stroke-opacity="1.00" stroke-width="0.3"><path d="
M 205.00 133.00 
C 209.07 132.56 212.49 128.12 214.00 125.00
C 214.91 123.11 215.72 121.09 216.00 119.00
C 217.02 111.35 215.79 102.85 210.75 97.25 C 205.71 91.65 199.20 91.93 194.77 98.77 C 190.35 105.61 191.15 111.56 192.01 119.99 C 192.87 128.42 198.37 130.11 205.00 133.00
M 204.00 98.00 
C 209.88 100.01 205.46 114.92 198.99 112.99 C 192.53 111.07 196.51 95.44 204.00 98.00 Z"/>
</g>
<g fill="None" fill-opacity="0.0" stroke="#15171C" stroke-opacity="1.00" stroke-width="0.3"><path d="
M 64.00 117.00 
C 63.84 121.30 63.99 126.28 66.00 130.00
C 66.80 131.49 70.47 136.17 72.00 137.00
C 79.71 136.29 89.04 139.01 93.08 130.08 C 97.11 121.14 96.29 115.03 92.92 107.08 C 89.56 99.12 81.79 95.27 74.08 98.08 C 66.37 100.88 64.28 109.68 64.00 117.00
M 77.00 102.00 
C 84.02 104.32 78.61 121.16 71.00 118.00 C 63.39 114.84 70.47 99.84 77.00 102.00 Z"/>
</g>
<g fill="None" fill-opacity="0.0" stroke="#F1F1F2" stroke-opacity="1.00" stroke-width="0.3"><path d="
M 204.00 98.00 
C 196.51 95.44 192.53 111.07 198.99 112.99 C 205.46 114.92 209.88 100.01 204.00 98.00 Z"/>
</g>
<g fill="None" fill-opacity="0.0" stroke="#F2F3F4" stroke-opacity="1.00" stroke-width="0.3"><path d="
M 77.00 102.00 
C 70.47 99.84 63.39 114.84 71.00 118.00 C 78.61 121.16 84.02 104.32 77.00 102.00 Z"/>
</g>
<g fill="None" fill-opacity="0.0" stroke="#D887A6" stroke-opacity="1.00" stroke-width="0.3"><path d="
M 42.00 119.00 
C 41.72 120.17 42.00 121.80 42.00 123.00
C 43.82 119.73 50.60 124.43 53.08 125.92 C 55.57 127.41 63.29 128.42 66.00 130.00
C 63.99 126.28 63.84 121.30 64.00 117.00
C 60.73 121.10 44.60 108.36 42.00 119.00 Z"/>
</g>
<g fill="None" fill-opacity="0.0" stroke="#5F6A73" stroke-opacity="1.00" stroke-width="0.3"><path d="
M 127.00 128.00 
C 130.11 134.64 136.37 138.02 143.00 140.00
C 134.64 135.58 133.69 126.07 143.07 125.07 C 152.46 124.07 161.80 121.78 169.00 128.00
C 167.25 121.49 166.88 119.76 158.22 116.78 C 149.56 113.80 126.27 113.83 127.00 128.00 Z"/>
</g>
<g fill="None" fill-opacity="0.0" stroke="#DA8AA9" stroke-opacity="1.00" stroke-width="0.3"><path d="
M 216.00 119.00 
C 215.72 121.09 214.91 123.11 214.00 125.00
C 218.72 129.05 227.63 118.77 232.00 125.00
C 231.42 117.30 221.82 111.84 216.00 119.00 Z"/>
</g>
<g fill="None" fill-opacity="0.0" stroke="#EFCED9" stroke-opacity="1.00" stroke-width="0.3"><path d="
M 42.00 129.00 
C 41.89 127.02 42.00 124.99 42.00 123.00
C 42.00 121.80 41.72 120.17 42.00 119.00
C 40.32 122.33 41.41 125.72 42.00 129.00 Z"/>
</g>
<g fill="None" fill-opacity="0.0" stroke="#C66487" stroke-opacity="1.00" stroke-width="0.3"><path d="
M 42.00 123.00 
C 42.00 124.99 41.89 127.02 42.00 129.00
C 42.26 133.47 43.79 137.16 46.00 141.00
C 46.58 141.31 48.33 140.98 49.00 141.00
C 57.18 141.22 64.83 137.66 72.00 137.00
C 70.47 136.17 66.80 131.49 66.00 130.00
C 63.29 128.42 55.57 127.41 53.08 125.92 C 50.60 124.43 43.82 119.73 42.00 123.00 Z"/>
</g>
<g fill="None" fill-opacity="0.0" stroke="#C76487" stroke-opacity="1.00" stroke-width="0.3"><path d="
M 214.00 125.00 
C 212.49 128.12 209.07 132.56 205.00 133.00
C 213.68 136.79 219.75 138.07 230.00 139.00
C 233.20 135.86 232.00 130.17 232.00 126.00
C 232.00 126.00 232.04 125.50 232.00 125.00
C 227.63 118.77 218.72 129.05 214.00 125.00 Z"/>
</g>
<g fill="None" fill-opacity="0.0" stroke="#13171C" stroke-opacity="1.00" stroke-width="0.3"><path d="
M 143.00 140.00 
C 153.72 143.21 167.74 142.39 171.00 130.00
C 171.06 130.14 169.06 128.05 169.00 128.00
C 161.80 121.78 152.46 124.07 143.07 125.07 C 133.69 126.07 134.64 135.58 143.00 140.00
M 153.00 127.00 
C 154.00 128.00 151.39 130.03 150.32 128.66 C 149.25 127.29 152.32 126.32 153.00 127.00
M 138.00 132.00 
C 138.51 125.72 145.01 132.85 138.00 132.00
M 148.00 131.00 
C 143.83 137.15 141.36 127.21 148.00 131.00 Z"/>
</g>
<g fill="None" fill-opacity="0.0" stroke="#E9B8CD" stroke-opacity="1.00" stroke-width="0.3"><path d="
M 230.00 139.00 
C 230.00 139.00 229.75 139.75 230.00 140.00
C 230.43 139.83 231.00 140.00 231.00 140.00
C 233.00 136.56 234.55 129.45 232.00 126.00
C 232.00 130.17 233.20 135.86 230.00 139.00 Z"/>
</g>
<g fill="None" fill-opacity="0.0" stroke="#C6CACE" stroke-opacity="1.00" stroke-width="0.3"><path d="
M 153.00 127.00 
C 152.32 126.32 149.25 127.29 150.32 128.66 C 151.39 130.03 154.00 128.00 153.00 127.00 Z"/>
</g>
<g fill="None" fill-opacity="0.0" stroke="#AEAFB5" stroke-opacity="1.00" stroke-width="0.3"><path d="
M 138.00 132.00 
C 145.01 132.85 138.51 125.72 138.00 132.00 Z"/>
</g>
<g fill="None" fill-opacity="0.0" stroke="#A7A7A7" stroke-opacity="1.00" stroke-width="0.3"><path d="
M 111.00 138.00 
C 110.25 136.34 109.02 134.90 109.00 133.00
C 112.81 131.88 112.43 135.64 113.00 137.00
C 112.96 136.24 116.97 132.10 113.22 130.78 C 109.47 129.46 108.04 129.44 107.01 132.99 C 105.98 136.55 109.50 136.26 111.00 138.00 Z"/>
</g>
<g fill="None" fill-opacity="0.0" stroke="#D0D3D8" stroke-opacity="1.00" stroke-width="0.3"><path d="
M 148.00 131.00 
C 141.36 127.21 143.83 137.15 148.00 131.00 Z"/>
</g>
<g fill="None" fill-opacity="0.0" stroke="#191A1E" stroke-opacity="1.00" stroke-width="0.3"><path d="
M 111.00 138.00 
C 114.70 146.19 122.45 152.68 131.00 155.00
C 135.62 156.25 140.02 156.91 145.00 157.00
C 147.32 157.04 149.68 157.08 152.00 157.00
C 157.29 156.82 162.15 155.83 167.00 154.00
C 174.79 150.97 183.41 144.74 185.00 136.00
C 176.94 145.60 162.07 154.16 149.02 152.98 C 135.98 151.79 119.00 150.35 113.00 137.00
C 112.43 135.64 112.81 131.88 109.00 133.00
C 109.02 134.90 110.25 136.34 111.00 138.00 Z"/>
</g>
<g fill="None" fill-opacity="0.0" stroke="#A7A7A8" stroke-opacity="1.00" stroke-width="0.3"><path d="
M 167.00 154.00 
C 162.15 155.83 157.29 156.82 152.00 157.00
C 149.57 157.35 147.34 157.28 145.00 157.00
C 140.02 156.91 135.62 156.25 131.00 155.00
C 101.96 155.26 76.15 149.12 49.00 141.00
C 48.33 140.98 46.58 141.31 46.00 141.00
C 57.45 160.90 80.05 165.31 100.93 171.07 C 121.80 176.84 157.36 175.89 179.32 172.32 C 201.28 168.75 223.88 162.83 231.00 140.00
C 231.00 140.00 230.43 139.83 230.00 140.00
C 209.01 148.25 188.53 151.25 167.00 154.00 Z"/>
</g>
<g fill="None" fill-opacity="0.0" stroke="#969CA1" stroke-opacity="0.57" stroke-width="0.3"><path d="
M 47.00 161.00 
C 45.09 158.85 43.57 156.19 41.00 154.00
C 42.93 156.35 44.23 158.81 47.00 161.00 Z"/>
</g>
<g fill="None" fill-opacity="0.0" stroke="#666768" stroke-opacity="1.00" stroke-width="0.3"><path d="
M 152.00 157.00 
C 149.68 157.08 147.32 157.04 145.00 157.00
C 147.34 157.28 149.57 157.35 152.00 157.00 Z"/>
</g>
<g fill="None" fill-opacity="0.0" stroke="#2C343B" stroke-opacity="1.00" stroke-width="0.3"><path d="
M 72.00 183.00 
C 74.10 178.48 87.69 187.73 93.07 187.93 C 98.45 188.12 111.23 194.96 117.00 193.00
C 118.55 189.06 120.08 184.94 124.00 184.00
C 106.82 182.79 89.39 178.24 73.00 173.00
C 73.14 176.44 73.10 179.89 72.00 183.00 Z"/>
</g>
<g fill="None" fill-opacity="0.0" stroke="#44525C" stroke-opacity="1.00" stroke-width="0.3"><path d="
M 72.00 183.00 
C 72.00 183.00 71.97 183.50 72.00 184.00
C 76.28 189.78 70.22 201.93 69.07 209.07 C 67.93 216.21 64.01 224.91 63.00 233.00 C 61.99 241.09 62.38 253.42 62.00 261.00
C 56.77 255.66 58.07 248.00 58.00 241.00
C 56.91 248.66 57.18 257.06 59.00 265.00
C 61.82 270.17 71.42 270.49 76.00 269.00
C 74.92 266.53 71.24 267.93 70.00 266.00
C 86.45 267.43 84.25 249.51 86.00 239.00
C 86.16 237.03 86.24 232.78 87.00 231.00
C 87.23 229.00 92.17 238.29 91.98 243.02 C 91.78 247.75 95.32 256.13 96.00 261.00
C 97.56 250.08 101.33 236.54 104.93 225.93 C 108.53 215.31 109.99 202.73 117.00 194.00
C 117.24 193.70 117.00 193.00 117.00 193.00
C 111.23 194.96 98.45 188.12 93.07 187.93 C 87.69 187.73 74.10 178.48 72.00 183.00 Z"/>
</g>
<g fill="None" fill-opacity="0.0" stroke="#2C343B" stroke-opacity="1.00" stroke-width="0.3"><path d="
M 164.00 184.00 
C 165.75 188.64 166.42 193.63 169.00 198.00
C 173.41 197.49 181.83 195.28 186.00 198.00
C 183.53 192.94 180.78 187.85 181.00 182.00
C 175.17 181.60 169.54 183.48 164.00 184.00 Z"/>
</g>
<g fill="None" fill-opacity="0.0" stroke="#616D77" stroke-opacity="1.00" stroke-width="0.3"><path d="
M 58.00 241.00 
C 58.07 248.00 56.77 255.66 62.00 261.00
C 62.38 253.42 61.99 241.09 63.00 233.00 C 64.01 224.91 67.93 216.21 69.07 209.07 C 70.22 201.93 76.28 189.78 72.00 184.00
C 73.32 203.82 58.75 221.45 58.00 241.00 Z"/>
</g>
<g fill="None" fill-opacity="0.0" stroke="#A1A2A2" stroke-opacity="1.00" stroke-width="0.3"><path d="
M 117.00 193.00 
C 117.00 193.00 117.24 193.70 117.00 194.00
C 133.41 198.74 151.77 196.42 169.00 198.00
C 166.42 193.63 165.75 188.64 164.00 184.00
C 161.06 184.28 157.96 184.00 155.00 184.00
C 148.39 184.64 140.54 184.63 134.00 184.00
C 130.72 184.00 127.26 184.32 124.00 184.00
C 120.08 184.94 118.55 189.06 117.00 193.00 Z"/>
</g>
<g fill="None" fill-opacity="0.0" stroke="#505355" stroke-opacity="1.00" stroke-width="0.3"><path d="
M 155.00 184.00 
C 148.00 184.00 141.00 184.00 134.00 184.00
C 140.54 184.63 148.39 184.64 155.00 184.00 Z"/>
</g>
<g fill="None" fill-opacity="0.0" stroke="#FDFDFD" stroke-opacity="1.00" stroke-width="0.3"><path d="
M 96.00 261.00 
C 96.40 263.87 96.00 267.10 96.00 270.00
C 98.17 274.98 107.37 274.98 112.08 277.92 C 116.78 280.87 127.93 280.98 134.00 281.00 C 140.07 281.02 150.64 281.12 156.02 279.02 C 161.41 276.93 170.05 275.33 174.22 272.22 C 178.40 269.12 187.29 266.91 189.00 262.00
C 189.00 259.67 189.00 257.33 189.00 255.00
C 185.96 235.37 175.40 216.89 169.00 198.00
C 151.77 196.42 133.41 198.74 117.00 194.00
C 109.99 202.73 108.53 215.31 104.93 225.93 C 101.33 236.54 97.56 250.08 96.00 261.00 Z"/>
</g>
<g fill="None" fill-opacity="0.0" stroke="#41505A" stroke-opacity="1.00" stroke-width="0.3"><path d="
M 169.00 198.00 
C 175.40 216.89 185.96 235.37 189.00 255.00
C 189.00 237.16 185.92 220.28 180.00 204.00
C 188.63 220.99 195.13 240.37 197.00 260.00
C 198.59 262.32 203.30 256.16 202.98 252.98 C 202.65 249.79 203.29 242.85 201.68 239.32 C 200.06 235.80 200.10 230.53 198.00 227.00
C 203.98 235.29 205.78 246.66 207.00 257.00
C 208.75 256.17 207.66 253.56 208.00 252.00
C 205.52 231.49 195.21 216.02 186.00 198.00
C 181.83 195.28 173.41 197.49 169.00 198.00 Z"/>
</g>
<g fill="None" fill-opacity="0.0" stroke="#12171B" stroke-opacity="0.99" stroke-width="0.3"><path d="
M 189.00 255.00 
C 189.00 257.33 189.00 259.67 189.00 262.00
C 189.00 267.03 191.15 279.01 188.00 283.00
C 190.19 282.60 193.62 282.60 196.00 282.00
C 200.83 277.91 197.57 265.10 197.00 260.00
C 195.13 240.37 188.63 220.99 180.00 204.00
C 185.92 220.28 189.00 237.16 189.00 255.00 Z"/>
</g>
<g fill="None" fill-opacity="0.0" stroke="#2B333A" stroke-opacity="0.98" stroke-width="0.3"><path d="
M 197.00 260.00 
C 197.57 265.10 200.83 277.91 196.00 282.00
C 201.16 280.70 204.86 279.30 209.00 276.00
C 209.00 276.00 208.77 275.35 209.00 275.00
C 207.71 275.17 207.25 276.70 206.00 277.00
C 208.70 268.86 208.97 260.06 208.00 252.00
C 207.66 253.56 208.75 256.17 207.00 257.00
C 205.78 246.66 203.98 235.29 198.00 227.00
C 200.10 230.53 200.06 235.80 201.68 239.32 C 203.29 242.85 202.65 249.79 202.98 252.98 C 203.30 256.16 198.59 262.32 197.00 260.00 Z"/>
</g>
<g fill="None" fill-opacity="0.0" stroke="#2A323A" stroke-opacity="1.00" stroke-width="0.3"><path d="
M 87.00 231.00 
C 86.20 238.13 89.60 250.91 90.33 258.67 C 91.06 266.43 93.80 276.32 97.00 283.00
C 97.17 278.61 96.00 274.56 96.00 270.00
C 96.00 267.10 96.40 263.87 96.00 261.00
C 95.32 256.13 91.78 247.75 91.98 243.02 C 92.17 238.29 87.23 229.00 87.00 231.00 Z"/>
</g>
<g fill="None" fill-opacity="0.0" stroke="#131619" stroke-opacity="0.99" stroke-width="0.3"><path d="
M 86.00 239.00 
C 85.49 245.43 85.51 257.00 86.00 263.00 C 86.49 269.00 84.53 280.14 89.00 284.00
C 91.59 284.41 94.21 284.67 97.00 285.00
C 96.76 284.69 96.98 283.50 97.00 283.00
C 93.80 276.32 91.06 266.43 90.33 258.67 C 89.60 250.91 86.20 238.13 87.00 231.00
C 86.24 232.78 86.16 237.03 86.00 239.00 Z"/>
</g>
<g fill="None" fill-opacity="0.0" stroke="#2A3037" stroke-opacity="0.97" stroke-width="0.3"><path d="
M 59.00 265.00 
C 59.70 268.04 61.13 272.46 63.00 275.00
C 66.80 276.47 70.16 280.16 74.93 281.07 C 79.69 281.98 84.08 283.22 89.00 284.00
C 84.53 280.14 86.49 269.00 86.00 263.00 C 85.51 257.00 85.49 245.43 86.00 239.00
C 84.25 249.51 86.45 267.43 70.00 266.00
C 71.24 267.93 74.92 266.53 76.00 269.00
C 71.42 270.49 61.82 270.17 59.00 265.00 Z"/>
</g>
<g fill="None" fill-opacity="0.0" stroke="#9F9F9F" stroke-opacity="0.98" stroke-width="0.3"><path d="
M 96.00 270.00 
C 96.00 274.56 97.17 278.61 97.00 283.00
C 96.98 283.50 96.76 284.69 97.00 285.00
C 127.54 288.60 158.34 288.39 188.00 283.00
C 191.15 279.01 189.00 267.03 189.00 262.00
C 187.29 266.91 178.40 269.12 174.22 272.22 C 170.05 275.33 161.41 276.93 156.02 279.02 C 150.64 281.12 140.07 281.02 134.00 281.00 C 127.93 280.98 116.78 280.87 112.08 277.92 C 107.37 274.98 98.17 274.98 96.00 270.00 Z"/>
</g>
<g fill="#000000" fill-opacity="0.00" stroke="None">
<path d="
M 0.00 300.00 
L 300.00 300.00
L 300.00 0.00
L 0.00 0.00
L 0.00 300.00
M 209.00 276.00 
C 204.86 279.30 201.16 280.70 196.00 282.00
C 193.62 282.60 190.19 282.60 188.00 283.00
C 158.34 288.39 127.54 288.60 97.00 285.00
C 94.21 284.67 91.59 284.41 89.00 284.00
C 84.08 283.22 79.69 281.98 74.93 281.07 C 70.16 280.16 66.80 276.47 63.00 275.00
C 61.53 274.43 60.30 274.68 59.00 274.00
C 49.29 268.93 50.00 251.21 50.00 241.00 C 50.00 230.79 55.94 218.47 58.98 207.98 C 62.01 197.48 66.20 182.98 65.00 171.00
C 58.16 169.86 52.64 164.85 47.00 161.00
C 44.23 158.81 42.93 156.35 41.00 154.00
C 32.96 147.13 27.59 134.24 28.07 122.93 C 28.55 111.61 12.85 107.64 11.00 96.00
C 10.64 93.74 10.64 90.26 11.00 88.00
C 12.77 76.85 24.89 73.32 35.00 74.00 C 45.11 74.68 52.11 65.65 59.25 59.25 C 66.38 52.84 73.76 49.10 82.69 44.69 C 91.63 40.29 101.69 37.26 112.07 35.07 C 122.46 32.89 138.45 34.29 149.07 34.93 C 159.70 35.57 169.92 38.80 179.23 42.77 C 188.54 46.74 195.88 51.12 203.75 57.25 C 211.62 63.38 216.48 69.93 221.92 78.08 C 227.36 86.23 229.96 94.73 234.31 103.69 C 238.65 112.66 243.27 122.63 244.00 133.00 C 244.73 143.37 242.32 154.59 234.75 161.75 C 227.18 168.91 219.61 173.24 209.98 175.98 C 200.34 178.71 185.51 180.43 191.93 191.07 C 198.34 201.72 199.71 206.37 204.97 216.03 C 210.23 225.68 213.90 234.07 215.33 244.67 C 216.76 255.27 217.98 268.84 209.00 276.00 Z"/>
</g>
<g fill="#94999E" fill-opacity="0.85" stroke="None">
<path d="
M 11.00 88.00 
C 10.94 88.95 10.94 95.12 11.00 96.00
C 12.85 107.64 28.55 111.61 28.07 122.93 C 27.59 134.24 32.96 147.13 41.00 154.00
C 43.57 156.19 45.09 158.85 47.00 161.00
C 52.64 164.85 58.16 169.86 65.00 171.00
C 66.20 182.98 62.01 197.48 58.98 207.98 C 55.94 218.47 50.00 230.79 50.00 241.00 C 50.00 251.21 49.29 268.93 59.00 274.00
C 53.08 268.90 53.82 257.66 52.02 249.98 C 50.23 242.29 53.96 229.74 55.98 221.98 C 58.00 214.21 62.23 207.24 63.78 198.78 C 65.33 190.31 67.94 179.30 67.00 170.00
C 42.49 162.77 27.38 137.24 30.00 112.00
C 11.80 112.28 6.12 76.72 26.01 77.01 C 45.90 77.30 54.31 65.54 68.75 54.75 C 83.18 43.96 98.46 40.23 116.00 37.00 C 133.54 33.77 158.32 36.47 174.22 42.78 C 190.12 49.08 201.72 56.24 212.92 69.08 C 224.12 81.93 228.47 96.31 235.78 111.22 C 243.09 126.14 246.26 148.27 232.75 160.75 C 219.24 173.23 203.30 176.80 186.00 180.00
C 195.05 210.57 226.91 241.04 209.00 275.00
C 208.77 275.35 209.00 276.00 209.00 276.00
C 217.98 268.84 216.76 255.27 215.33 244.67 C 213.90 234.07 210.23 225.68 204.97 216.03 C 199.71 206.37 198.34 201.72 191.93 191.07 C 185.51 180.43 200.34 178.71 209.98 175.98 C 219.61 173.24 227.18 168.91 234.75 161.75 C 242.32 154.59 244.73 143.37 244.00 133.00 C 243.27 122.63 238.65 112.66 234.31 103.69 C 229.96 94.73 227.36 86.23 221.92 78.08 C 216.48 69.93 211.62 63.38 203.75 57.25 C 195.88 51.12 188.54 46.74 179.23 42.77 C 169.92 38.80 159.70 35.57 149.07 34.93 C 138.45 34.29 122.46 32.89 112.07 35.07 C 101.69 37.26 91.63 40.29 82.69 44.69 C 73.76 49.10 66.38 52.84 59.25 59.25 C 52.11 65.65 45.11 74.68 35.00 74.00 C 24.89 73.32 12.77 76.85 11.00 88.00 Z"/>
</g>
<g fill="#11161A" fill-opacity="1.00" stroke="None">
<path d="
M 59.00 274.00 
C 60.30 274.68 61.53 274.43 63.00 275.00
C 61.13 272.46 59.70 268.04 59.00 265.00
C 57.18 257.06 56.91 248.66 58.00 241.00
C 58.75 221.45 73.32 203.82 72.00 184.00
C 71.97 183.50 72.00 183.00 72.00 183.00
C 73.10 179.89 73.14 176.44 73.00 173.00
C 89.39 178.24 106.82 182.79 124.00 184.00
C 127.26 184.32 130.72 184.00 134.00 184.00
C 141.00 184.00 148.00 184.00 155.00 184.00
C 157.96 184.00 161.06 184.28 164.00 184.00
C 169.54 183.48 175.17 181.60 181.00 182.00
C 180.78 187.85 183.53 192.94 186.00 198.00
C 195.21 216.02 205.52 231.49 208.00 252.00
C 208.97 260.06 208.70 268.86 206.00 277.00
C 207.25 276.70 207.71 275.17 209.00 275.00
C 226.91 241.04 195.05 210.57 186.00 180.00
C 203.30 176.80 219.24 173.23 232.75 160.75 C 246.26 148.27 243.09 126.14 235.78 111.22 C 228.47 96.31 224.12 81.93 212.92 69.08 C 201.72 56.24 190.12 49.08 174.22 42.78 C 158.32 36.47 133.54 33.77 116.00 37.00 C 98.46 40.23 83.18 43.96 68.75 54.75 C 54.31 65.54 45.90 77.30 26.01 77.01 C 6.12 76.72 11.80 112.28 30.00 112.00
C 27.38 137.24 42.49 162.77 67.00 170.00
C 67.94 179.30 65.33 190.31 63.78 198.78 C 62.23 207.24 58.00 214.21 55.98 221.98 C 53.96 229.74 50.23 242.29 52.02 249.98 C 53.82 257.66 53.08 268.90 59.00 274.00
M 153.00 42.00 
C 162.06 43.62 170.75 45.78 179.00 50.00
C 200.85 61.17 212.91 76.41 223.00 98.00
C 231.12 115.35 247.72 146.04 225.75 160.75 C 203.79 175.46 181.10 175.97 156.00 179.00 C 130.90 182.03 100.82 175.05 78.78 168.22 C 56.74 161.40 35.28 146.24 37.00 121.00
C 34.95 108.37 35.17 94.99 44.00 84.00
C 43.06 83.43 42.18 82.85 41.00 83.00
C 42.03 84.33 41.47 84.07 41.00 85.00
C 39.09 88.76 35.75 91.98 34.00 96.00
C 32.77 100.46 32.17 105.70 33.00 110.00
C 27.98 109.01 24.43 105.37 22.00 101.00
C 17.22 94.57 15.70 83.23 25.70 80.70 C 35.69 78.16 44.27 80.81 53.00 75.00
C 56.22 72.86 59.17 69.52 62.00 67.00
C 84.08 44.04 122.76 36.58 153.00 42.00 Z"/>
</g>
<g fill="#485660" fill-opacity="1.00" stroke="None">
<path d="
M 62.00 67.00 
C 58.98 70.14 55.64 73.77 53.00 75.00
C 44.27 80.81 35.69 78.16 25.70 80.70 C 15.70 83.23 17.22 94.57 22.00 101.00
C 19.53 96.52 18.86 87.32 22.77 83.77 C 26.68 80.22 37.88 78.97 41.00 83.00
C 42.18 82.85 43.06 83.43 44.00 84.00
C 35.17 94.99 34.95 108.37 37.00 121.00
C 38.69 96.13 58.96 76.13 84.22 81.78 C 109.48 87.43 117.43 107.52 127.00 128.00
C 126.27 113.83 149.56 113.80 158.22 116.78 C 166.88 119.76 167.25 121.49 169.00 128.00
C 169.06 128.05 171.06 130.14 171.00 130.00
C 175.12 114.33 181.21 75.00 208.00 86.00
C 203.41 80.18 202.36 70.68 195.75 65.25 C 189.14 59.82 184.57 54.58 176.77 51.23 C 168.97 47.88 160.83 44.48 153.00 42.00
C 122.76 36.58 84.08 44.04 62.00 67.00 Z"/>
</g>
<g fill="#63717B" fill-opacity="1.00" stroke="None">
<path d="
M 208.00 86.00 
C 208.85 86.35 211.08 87.49 212.00 88.00
C 207.15 81.21 206.60 71.97 198.75 66.25 C 190.91 60.53 186.68 54.90 179.00 50.00
C 170.75 45.78 162.06 43.62 153.00 42.00
C 160.83 44.48 168.97 47.88 176.77 51.23 C 184.57 54.58 189.14 59.82 195.75 65.25 C 202.36 70.68 203.41 80.18 208.00 86.00 Z"/>
</g>
<g fill="#45525A" fill-opacity="1.00" stroke="None">
<path d="
M 212.00 88.00 
C 215.83 90.12 220.47 94.49 223.00 98.00
C 212.91 76.41 200.85 61.17 179.00 50.00
C 186.68 54.90 190.91 60.53 198.75 66.25 C 206.60 71.97 207.15 81.21 212.00 88.00 Z"/>
</g>
<g fill="#727B83" fill-opacity="1.00" stroke="None">
<path d="
M 53.00 75.00 
C 55.64 73.77 58.98 70.14 62.00 67.00
C 59.17 69.52 56.22 72.86 53.00 75.00 Z"/>
</g>
<g fill="#331B2B" fill-opacity="1.00" stroke="None">
<path d="
M 22.00 101.00 
C 24.43 105.37 27.98 109.01 33.00 110.00
C 32.17 105.70 32.77 100.46 34.00 96.00
C 32.60 99.20 31.39 103.18 31.00 107.00
C 23.91 105.48 19.00 96.70 21.33 89.33 C 23.66 81.96 35.77 80.88 41.00 85.00
C 41.47 84.07 42.03 84.33 41.00 83.00
C 37.88 78.97 26.68 80.22 22.77 83.77 C 18.86 87.32 19.53 96.52 22.00 101.00 Z"/>
</g>
<g fill="#F7F8F8" fill-opacity="1.00" stroke="None">
<path d="
M 37.00 121.00 
C 35.28 146.24 56.74 161.40 78.78 168.22 C 100.82 175.05 130.90 182.03 156.00 179.00 C 181.10 175.97 203.79 175.46 225.75 160.75 C 247.72 146.04 231.12 115.35 223.00 98.00
C 220.47 94.49 215.83 90.12 212.00 88.00
C 211.08 87.49 208.85 86.35 208.00 86.00
C 181.21 75.00 175.12 114.33 171.00 130.00
C 167.74 142.39 153.72 143.21 143.00 140.00
C 136.37 138.02 130.11 134.64 127.00 128.00
C 117.43 107.52 109.48 87.43 84.22 81.78 C 58.96 76.13 38.69 96.13 37.00 121.00
M 216.00 119.00 
C 221.82 111.84 231.42 117.30 232.00 125.00
C 232.04 125.50 232.00 126.00 232.00 126.00
C 234.55 129.45 233.00 136.56 231.00 140.00
C 223.88 162.83 201.28 168.75 179.32 172.32 C 157.36 175.89 121.80 176.84 100.93 171.07 C 80.05 165.31 57.45 160.90 46.00 141.00
C 43.79 137.16 42.26 133.47 42.00 129.00
C 41.41 125.72 40.32 122.33 42.00 119.00
C 44.60 108.36 60.73 121.10 64.00 117.00
C 64.28 109.68 66.37 100.88 74.08 98.08 C 81.79 95.27 89.56 99.12 92.92 107.08 C 96.29 115.03 97.11 121.14 93.08 130.08 C 89.04 139.01 79.71 136.29 72.00 137.00
C 64.83 137.66 57.18 141.22 49.00 141.00
C 76.15 149.12 101.96 155.26 131.00 155.00
C 122.45 152.68 114.70 146.19 111.00 138.00
C 109.50 136.26 105.98 136.55 107.01 132.99 C 108.04 129.44 109.47 129.46 113.22 130.78 C 116.97 132.10 112.96 136.24 113.00 137.00
C 119.00 150.35 135.98 151.79 149.02 152.98 C 162.07 154.16 176.94 145.60 185.00 136.00
C 183.41 144.74 174.79 150.97 167.00 154.00
C 188.53 151.25 209.01 148.25 230.00 140.00
C 229.75 139.75 230.00 139.00 230.00 139.00
C 219.75 138.07 213.68 136.79 205.00 133.00
C 198.37 130.11 192.87 128.42 192.01 119.99 C 191.15 111.56 190.35 105.61 194.77 98.77 C 199.20 91.93 205.71 91.65 210.75 97.25 C 215.79 102.85 217.02 111.35 216.00 119.00 Z"/>
</g>
<g fill="#B15A7B" fill-opacity="1.00" stroke="None">
<path d="
M 34.00 96.00 
C 35.75 91.98 39.09 88.76 41.00 85.00
C 35.77 80.88 23.66 81.96 21.33 89.33 C 19.00 96.70 23.91 105.48 31.00 107.00
C 31.39 103.18 32.60 99.20 34.00 96.00 Z"/>
</g>
<g fill="#A9ACB1" fill-opacity="0.70" stroke="None">
<path d="
M 11.00 96.00 
C 10.94 95.12 10.94 88.95 11.00 88.00
C 10.64 90.26 10.64 93.74 11.00 96.00 Z"/>
</g>
<g fill="#15161B" fill-opacity="1.00" stroke="None">
<path d="
M 205.00 133.00 
C 209.07 132.56 212.49 128.12 214.00 125.00
C 214.91 123.11 215.72 121.09 216.00 119.00
C 217.02 111.35 215.79 102.85 210.75 97.25 C 205.71 91.65 199.20 91.93 194.77 98.77 C 190.35 105.61 191.15 111.56 192.01 119.99 C 192.87 128.42 198.37 130.11 205.00 133.00
M 204.00 98.00 
C 209.88 100.01 205.46 114.92 198.99 112.99 C 192.53 111.07 196.51 95.44 204.00 98.00 Z"/>
</g>
<g fill="#15171C" fill-opacity="1.00" stroke="None">
<path d="
M 64.00 117.00 
C 63.84 121.30 63.99 126.28 66.00 130.00
C 66.80 131.49 70.47 136.17 72.00 137.00
C 79.71 136.29 89.04 139.01 93.08 130.08 C 97.11 121.14 96.29 115.03 92.92 107.08 C 89.56 99.12 81.79 95.27 74.08 98.08 C 66.37 100.88 64.28 109.68 64.00 117.00
M 77.00 102.00 
C 84.02 104.32 78.61 121.16 71.00 118.00 C 63.39 114.84 70.47 99.84 77.00 102.00 Z"/>
</g>
<g fill="#F1F1F2" fill-opacity="1.00" stroke="None">
<path d="
M 204.00 98.00 
C 196.51 95.44 192.53 111.07 198.99 112.99 C 205.46 114.92 209.88 100.01 204.00 98.00 Z"/>
</g>
<g fill="#F2F3F4" fill-opacity="1.00" stroke="None">
<path d="
M 77.00 102.00 
C 70.47 99.84 63.39 114.84 71.00 118.00 C 78.61 121.16 84.02 104.32 77.00 102.00 Z"/>
</g>
<g fill="#D887A6" fill-opacity="1.00" stroke="None">
<path d="
M 42.00 119.00 
C 41.72 120.17 42.00 121.80 42.00 123.00
C 43.82 119.73 50.60 124.43 53.08 125.92 C 55.57 127.41 63.29 128.42 66.00 130.00
C 63.99 126.28 63.84 121.30 64.00 117.00
C 60.73 121.10 44.60 108.36 42.00 119.00 Z"/>
</g>
<g fill="#5F6A73" fill-opacity="1.00" stroke="None">
<path d="
M 127.00 128.00 
C 130.11 134.64 136.37 138.02 143.00 140.00
C 134.64 135.58 133.69 126.07 143.07 125.07 C 152.46 124.07 161.80 121.78 169.00 128.00
C 167.25 121.49 166.88 119.76 158.22 116.78 C 149.56 113.80 126.27 113.83 127.00 128.00 Z"/>
</g>
<g fill="#DA8AA9" fill-opacity="1.00" stroke="None">
<path d="
M 216.00 119.00 
C 215.72 121.09 214.91 123.11 214.00 125.00
C 218.72 129.05 227.63 118.77 232.00 125.00
C 231.42 117.30 221.82 111.84 216.00 119.00 Z"/>
</g>
<g fill="#EFCED9" fill-opacity="1.00" stroke="None">
<path d="
M 42.00 129.00 
C 41.89 127.02 42.00 124.99 42.00 123.00
C 42.00 121.80 41.72 120.17 42.00 119.00
C 40.32 122.33 41.41 125.72 42.00 129.00 Z"/>
</g>
<g fill="#C66487" fill-opacity="1.00" stroke="None">
<path d="
M 42.00 123.00 
C 42.00 124.99 41.89 127.02 42.00 129.00
C 42.26 133.47 43.79 137.16 46.00 141.00
C 46.58 141.31 48.33 140.98 49.00 141.00
C 57.18 141.22 64.83 137.66 72.00 137.00
C 70.47 136.17 66.80 131.49 66.00 130.00
C 63.29 128.42 55.57 127.41 53.08 125.92 C 50.60 124.43 43.82 119.73 42.00 123.00 Z"/>
</g>
<g fill="#C76487" fill-opacity="1.00" stroke="None">
<path d="
M 214.00 125.00 
C 212.49 128.12 209.07 132.56 205.00 133.00
C 213.68 136.79 219.75 138.07 230.00 139.00
C 233.20 135.86 232.00 130.17 232.00 126.00
C 232.00 126.00 232.04 125.50 232.00 125.00
C 227.63 118.77 218.72 129.05 214.00 125.00 Z"/>
</g>
<g fill="#13171C" fill-opacity="1.00" stroke="None">
<path d="
M 143.00 140.00 
C 153.72 143.21 167.74 142.39 171.00 130.00
C 171.06 130.14 169.06 128.05 169.00 128.00
C 161.80 121.78 152.46 124.07 143.07 125.07 C 133.69 126.07 134.64 135.58 143.00 140.00
M 153.00 127.00 
C 154.00 128.00 151.39 130.03 150.32 128.66 C 149.25 127.29 152.32 126.32 153.00 127.00
M 138.00 132.00 
C 138.51 125.72 145.01 132.85 138.00 132.00
M 148.00 131.00 
C 143.83 137.15 141.36 127.21 148.00 131.00 Z"/>
</g>
<g fill="#E9B8CD" fill-opacity="1.00" stroke="None">
<path d="
M 230.00 139.00 
C 230.00 139.00 229.75 139.75 230.00 140.00
C 230.43 139.83 231.00 140.00 231.00 140.00
C 233.00 136.56 234.55 129.45 232.00 126.00
C 232.00 130.17 233.20 135.86 230.00 139.00 Z"/>
</g>
<g fill="#C6CACE" fill-opacity="1.00" stroke="None">
<path d="
M 153.00 127.00 
C 152.32 126.32 149.25 127.29 150.32 128.66 C 151.39 130.03 154.00 128.00 153.00 127.00 Z"/>
</g>
<g fill="#AEAFB5" fill-opacity="1.00" stroke="None">
<path d="
M 138.00 132.00 
C 145.01 132.85 138.51 125.72 138.00 132.00 Z"/>
</g>
<g fill="#A7A7A7" fill-opacity="1.00" stroke="None">
<path d="
M 111.00 138.00 
C 110.25 136.34 109.02 134.90 109.00 133.00
C 112.81 131.88 112.43 135.64 113.00 137.00
C 112.96 136.24 116.97 132.10 113.22 130.78 C 109.47 129.46 108.04 129.44 107.01 132.99 C 105.98 136.55 109.50 136.26 111.00 138.00 Z"/>
</g>
<g fill="#D0D3D8" fill-opacity="1.00" stroke="None">
<path d="
M 148.00 131.00 
C 141.36 127.21 143.83 137.15 148.00 131.00 Z"/>
</g>
<g fill="#191A1E" fill-opacity="1.00" stroke="None">
<path d="
M 111.00 138.00 
C 114.70 146.19 122.45 152.68 131.00 155.00
C 135.62 156.25 140.02 156.91 145.00 157.00
C 147.32 157.04 149.68 157.08 152.00 157.00
C 157.29 156.82 162.15 155.83 167.00 154.00
C 174.79 150.97 183.41 144.74 185.00 136.00
C 176.94 145.60 162.07 154.16 149.02 152.98 C 135.98 151.79 119.00 150.35 113.00 137.00
C 112.43 135.64 112.81 131.88 109.00 133.00
C 109.02 134.90 110.25 136.34 111.00 138.00 Z"/>
</g>
<g fill="#A7A7A8" fill-opacity="1.00" stroke="None">
<path d="
M 167.00 154.00 
C 162.15 155.83 157.29 156.82 152.00 157.00
C 149.57 157.35 147.34 157.28 145.00 157.00
C 140.02 156.91 135.62 156.25 131.00 155.00
C 101.96 155.26 76.15 149.12 49.00 141.00
C 48.33 140.98 46.58 141.31 46.00 141.00
C 57.45 160.90 80.05 165.31 100.93 171.07 C 121.80 176.84 157.36 175.89 179.32 172.32 C 201.28 168.75 223.88 162.83 231.00 140.00
C 231.00 140.00 230.43 139.83 230.00 140.00
C 209.01 148.25 188.53 151.25 167.00 154.00 Z"/>
</g>
<g fill="#969CA1" fill-opacity="0.57" stroke="None">
<path d="
M 47.00 161.00 
C 45.09 158.85 43.57 156.19 41.00 154.00
C 42.93 156.35 44.23 158.81 47.00 161.00 Z"/>
</g>
<g fill="#666768" fill-opacity="1.00" stroke="None">
<path d="
M 152.00 157.00 
C 149.68 157.08 147.32 157.04 145.00 157.00
C 147.34 157.28 149.57 157.35 152.00 157.00 Z"/>
</g>
<g fill="#2C343B" fill-opacity="1.00" stroke="None">
<path d="
M 72.00 183.00 
C 74.10 178.48 87.69 187.73 93.07 187.93 C 98.45 188.12 111.23 194.96 117.00 193.00
C 118.55 189.06 120.08 184.94 124.00 184.00
C 106.82 182.79 89.39 178.24 73.00 173.00
C 73.14 176.44 73.10 179.89 72.00 183.00 Z"/>
</g>
<g fill="#44525C" fill-opacity="1.00" stroke="None">
<path d="
M 72.00 183.00 
C 72.00 183.00 71.97 183.50 72.00 184.00
C 76.28 189.78 70.22 201.93 69.07 209.07 C 67.93 216.21 64.01 224.91 63.00 233.00 C 61.99 241.09 62.38 253.42 62.00 261.00
C 56.77 255.66 58.07 248.00 58.00 241.00
C 56.91 248.66 57.18 257.06 59.00 265.00
C 61.82 270.17 71.42 270.49 76.00 269.00
C 74.92 266.53 71.24 267.93 70.00 266.00
C 86.45 267.43 84.25 249.51 86.00 239.00
C 86.16 237.03 86.24 232.78 87.00 231.00
C 87.23 229.00 92.17 238.29 91.98 243.02 C 91.78 247.75 95.32 256.13 96.00 261.00
C 97.56 250.08 101.33 236.54 104.93 225.93 C 108.53 215.31 109.99 202.73 117.00 194.00
C 117.24 193.70 117.00 193.00 117.00 193.00
C 111.23 194.96 98.45 188.12 93.07 187.93 C 87.69 187.73 74.10 178.48 72.00 183.00 Z"/>
</g>
<g fill="#2C343B" fill-opacity="1.00" stroke="None">
<path d="
M 164.00 184.00 
C 165.75 188.64 166.42 193.63 169.00 198.00
C 173.41 197.49 181.83 195.28 186.00 198.00
C 183.53 192.94 180.78 187.85 181.00 182.00
C 175.17 181.60 169.54 183.48 164.00 184.00 Z"/>
</g>
<g fill="#616D77" fill-opacity="1.00" stroke="None">
<path d="
M 58.00 241.00 
C 58.07 248.00 56.77 255.66 62.00 261.00
C 62.38 253.42 61.99 241.09 63.00 233.00 C 64.01 224.91 67.93 216.21 69.07 209.07 C 70.22 201.93 76.28 189.78 72.00 184.00
C 73.32 203.82 58.75 221.45 58.00 241.00 Z"/>
</g>
<g fill="#A1A2A2" fill-opacity="1.00" stroke="None">
<path d="
M 117.00 193.00 
C 117.00 193.00 117.24 193.70 117.00 194.00
C 133.41 198.74 151.77 196.42 169.00 198.00
C 166.42 193.63 165.75 188.64 164.00 184.00
C 161.06 184.28 157.96 184.00 155.00 184.00
C 148.39 184.64 140.54 184.63 134.00 184.00
C 130.72 184.00 127.26 184.32 124.00 184.00
C 120.08 184.94 118.55 189.06 117.00 193.00 Z"/>
</g>
<g fill="#505355" fill-opacity="1.00" stroke="None">
<path d="
M 155.00 184.00 
C 148.00 184.00 141.00 184.00 134.00 184.00
C 140.54 184.63 148.39 184.64 155.00 184.00 Z"/>
</g>
<g fill="#FDFDFD" fill-opacity="1.00" stroke="None">
<path d="
M 96.00 261.00 
C 96.40 263.87 96.00 267.10 96.00 270.00
C 98.17 274.98 107.37 274.98 112.08 277.92 C 116.78 280.87 127.93 280.98 134.00 281.00 C 140.07 281.02 150.64 281.12 156.02 279.02 C 161.41 276.93 170.05 275.33 174.22 272.22 C 178.40 269.12 187.29 266.91 189.00 262.00
C 189.00 259.67 189.00 257.33 189.00 255.00
C 185.96 235.37 175.40 216.89 169.00 198.00
C 151.77 196.42 133.41 198.74 117.00 194.00
C 109.99 202.73 108.53 215.31 104.93 225.93 C 101.33 236.54 97.56 250.08 96.00 261.00 Z"/>
</g>
<g fill="#41505A" fill-opacity="1.00" stroke="None">
<path d="
M 169.00 198.00 
C 175.40 216.89 185.96 235.37 189.00 255.00
C 189.00 237.16 185.92 220.28 180.00 204.00
C 188.63 220.99 195.13 240.37 197.00 260.00
C 198.59 262.32 203.30 256.16 202.98 252.98 C 202.65 249.79 203.29 242.85 201.68 239.32 C 200.06 235.80 200.10 230.53 198.00 227.00
C 203.98 235.29 205.78 246.66 207.00 257.00
C 208.75 256.17 207.66 253.56 208.00 252.00
C 205.52 231.49 195.21 216.02 186.00 198.00
C 181.83 195.28 173.41 197.49 169.00 198.00 Z"/>
</g>
<g fill="#12171B" fill-opacity="0.99" stroke="None">
<path d="
M 189.00 255.00 
C 189.00 257.33 189.00 259.67 189.00 262.00
C 189.00 267.03 191.15 279.01 188.00 283.00
C 190.19 282.60 193.62 282.60 196.00 282.00
C 200.83 277.91 197.57 265.10 197.00 260.00
C 195.13 240.37 188.63 220.99 180.00 204.00
C 185.92 220.28 189.00 237.16 189.00 255.00 Z"/>
</g>
<g fill="#2B333A" fill-opacity="0.98" stroke="None">
<path d="
M 197.00 260.00 
C 197.57 265.10 200.83 277.91 196.00 282.00
C 201.16 280.70 204.86 279.30 209.00 276.00
C 209.00 276.00 208.77 275.35 209.00 275.00
C 207.71 275.17 207.25 276.70 206.00 277.00
C 208.70 268.86 208.97 260.06 208.00 252.00
C 207.66 253.56 208.75 256.17 207.00 257.00
C 205.78 246.66 203.98 235.29 198.00 227.00
C 200.10 230.53 200.06 235.80 201.68 239.32 C 203.29 242.85 202.65 249.79 202.98 252.98 C 203.30 256.16 198.59 262.32 197.00 260.00 Z"/>
</g>
<g fill="#2A323A" fill-opacity="1.00" stroke="None">
<path d="
M 87.00 231.00 
C 86.20 238.13 89.60 250.91 90.33 258.67 C 91.06 266.43 93.80 276.32 97.00 283.00
C 97.17 278.61 96.00 274.56 96.00 270.00
C 96.00 267.10 96.40 263.87 96.00 261.00
C 95.32 256.13 91.78 247.75 91.98 243.02 C 92.17 238.29 87.23 229.00 87.00 231.00 Z"/>
</g>
<g fill="#131619" fill-opacity="0.99" stroke="None">
<path d="
M 86.00 239.00 
C 85.49 245.43 85.51 257.00 86.00 263.00 C 86.49 269.00 84.53 280.14 89.00 284.00
C 91.59 284.41 94.21 284.67 97.00 285.00
C 96.76 284.69 96.98 283.50 97.00 283.00
C 93.80 276.32 91.06 266.43 90.33 258.67 C 89.60 250.91 86.20 238.13 87.00 231.00
C 86.24 232.78 86.16 237.03 86.00 239.00 Z"/>
</g>
<g fill="#2A3037" fill-opacity="0.97" stroke="None">
<path d="
M 59.00 265.00 
C 59.70 268.04 61.13 272.46 63.00 275.00
C 66.80 276.47 70.16 280.16 74.93 281.07 C 79.69 281.98 84.08 283.22 89.00 284.00
C 84.53 280.14 86.49 269.00 86.00 263.00 C 85.51 257.00 85.49 245.43 86.00 239.00
C 84.25 249.51 86.45 267.43 70.00 266.00
C 71.24 267.93 74.92 266.53 76.00 269.00
C 71.42 270.49 61.82 270.17 59.00 265.00 Z"/>
</g>
<g fill="#9F9F9F" fill-opacity="0.98" stroke="None">
<path d="
M 96.00 270.00 
C 96.00 274.56 97.17 278.61 97.00 283.00
C 96.98 283.50 96.76 284.69 97.00 285.00
C 127.54 288.60 158.34 288.39 188.00 283.00
C 191.15 279.01 189.00 267.03 189.00 262.00
C 187.29 266.91 178.40 269.12 174.22 272.22 C 170.05 275.33 161.41 276.93 156.02 279.02 C 150.64 281.12 140.07 281.02 134.00 281.00 C 127.93 280.98 116.78 280.87 112.08 277.92 C 107.37 274.98 98.17 274.98 96.00 270.00 Z"/>
</g>
</svg>